<svg viewBox="0 0 24 24" fill="none" xmlns="http://www.w3.org/2000/svg">
<path d="M9.9514 7.99991C10.2157 7.99975 10.4608 7.86515 10.5995 7.64417C10.7384 7.42302 10.751 7.14711 10.6331 6.91461C10.5633 6.75373 10.5257 6.58113 10.5225 6.4062C10.5211 6.24398 10.572 6.08544 10.6678 5.95337C10.7637 5.82129 10.8995 5.72252 11.0561 5.67129C11.6171 5.40126 12.0939 4.98742 12.4359 4.47331C12.7781 3.9592 12.9729 3.36387 13 2.74999C13 2.48196 12.8547 2.23437 12.6188 2.10045C12.383 1.96652 12.0924 1.96652 11.8565 2.10045C11.6207 2.23437 11.4754 2.48197 11.4754 2.74999C11.451 3.08598 11.336 3.40943 11.142 3.68697C10.948 3.96437 10.6824 4.18604 10.3722 4.32867C9.96297 4.50612 9.61498 4.79709 9.3713 5.16605C9.12746 5.53519 8.99848 5.9661 9.00001 6.40624C9.00359 6.81372 9.09581 7.21585 9.27074 7.58532C9.33387 7.70971 9.43103 7.81434 9.55133 7.88767C9.67146 7.96082 9.81 7.99975 9.9514 7.99991Z" fill="currentColor"/>
<path d="M6.59955 7.64417C6.46085 7.86515 6.21566 7.99975 5.9514 7.99991C5.80966 8.00008 5.67062 7.96149 5.54997 7.88817C5.42933 7.81501 5.33183 7.71005 5.26836 7.58532C5.09428 7.21568 5.00291 6.81355 5.00001 6.40624C4.99848 5.9661 5.12746 5.53519 5.3713 5.16605C5.61498 4.79709 5.96297 4.50612 6.37221 4.32867C6.6824 4.18604 6.94804 3.96437 7.14202 3.68697C7.336 3.40943 7.45103 3.08598 7.47536 2.74999C7.47536 2.48197 7.62068 2.23437 7.85652 2.10045C8.09236 1.96652 8.383 1.96652 8.61884 2.10045C8.85468 2.23437 9 2.48196 9 2.74999C8.97295 3.36387 8.77812 3.9592 8.43593 4.47331C8.09389 4.98742 7.61711 5.40126 7.05609 5.67129C6.89954 5.72252 6.76375 5.82129 6.66778 5.95337C6.57198 6.08544 6.5211 6.24398 6.52246 6.4062C6.5257 6.58113 6.5633 6.75373 6.63307 6.91461C6.75099 7.14711 6.7384 7.42302 6.59955 7.64417Z" fill="currentColor"/>
<path fill-rule="evenodd" clip-rule="evenodd" d="M18.4285 12.8115C18.0507 13.7694 17.4969 14.6392 16.7987 15.3711L18.9684 22.9839C19.0255 23.1846 19.0046 23.4008 18.9102 23.5852C18.8158 23.7695 18.6557 23.9068 18.4652 23.9669C18.3952 23.9885 18.3227 23.9998 18.2499 24C18.0885 24 17.9315 23.9452 17.8021 23.8439C17.6727 23.7424 17.5778 23.5998 17.5314 23.4371L16.7896 20.8319C16.7828 20.8322 16.7767 20.8342 16.7706 20.8362C16.7639 20.8384 16.7573 20.8405 16.7499 20.8405H6.25007C6.24295 20.8405 6.23659 20.8384 6.23023 20.8362C6.22387 20.834 6.21751 20.8319 6.21039 20.8319L5.46859 23.4371C5.42222 23.5998 5.32729 23.7424 5.19789 23.8439C5.06849 23.9452 4.91146 24 4.75008 24C4.67709 24.0002 4.6046 23.9891 4.53479 23.9669C4.34427 23.9068 4.18423 23.7695 4.08981 23.5852C3.99539 23.4009 3.97447 23.1846 4.03155 22.9839L6.20134 15.3711C5.50308 14.6393 4.9493 13.7694 4.57146 12.8115C4.19379 11.8536 3.9996 10.8265 4.0001 9.78948C4.0001 9.58012 4.07912 9.37923 4.21974 9.2312C4.36036 9.08318 4.55121 9 4.75009 9H18.2499C18.4488 9 18.6396 9.08318 18.7803 9.2312C18.9209 9.37923 18.9999 9.58012 18.9999 9.78948C19.0004 10.8265 18.8062 11.8536 18.4285 12.8115ZM7.46415 16.4337L6.65793 19.2631H16.3418L15.5356 16.4337C14.3324 17.25 12.9314 17.6842 11.4999 17.6842C10.0684 17.6842 8.66731 17.25 7.46415 16.4337Z" fill="currentColor"/>
<path d="M15.5995 7.64417C15.4608 7.86515 15.2157 7.99975 14.9514 7.99991C14.81 7.99975 14.6715 7.96082 14.5513 7.88767C14.431 7.81434 14.3339 7.70971 14.2707 7.58532C14.0958 7.21586 14.0036 6.81372 14 6.40624C13.9985 5.9661 14.1275 5.53519 14.3713 5.16605C14.615 4.79709 14.963 4.50612 15.3722 4.32867C15.6824 4.18604 15.948 3.96437 16.142 3.68697C16.336 3.40943 16.451 3.08598 16.4754 2.74999C16.4754 2.48197 16.6207 2.23437 16.8565 2.10045C17.0924 1.96652 17.383 1.96652 17.6188 2.10045C17.8547 2.23437 18 2.48196 18 2.74999C17.9729 3.36387 17.7781 3.9592 17.4359 4.47331C17.0939 4.98742 16.6171 5.40126 16.0561 5.67129C15.8995 5.72252 15.7637 5.82129 15.6678 5.95337C15.572 6.08544 15.5211 6.24398 15.5225 6.4062C15.5257 6.58113 15.5633 6.75373 15.6331 6.91461C15.751 7.14711 15.7384 7.42302 15.5995 7.64417Z" fill="currentColor"/>
</svg>
