<svg viewBox="0 0 24 24" fill="none" xmlns="http://www.w3.org/2000/svg">
<path fill-rule="evenodd" clip-rule="evenodd" d="M17.3866 4.59714C17.3432 4.66775 17.3176 4.75334 17.3176 4.85391V23.4876C17.3176 23.767 17.5734 24 17.8802 24H20.4374C20.7442 24 21 23.767 21 23.4876V2.5247C21 2.0589 20.3607 1.8259 20.0282 2.15199L17.471 4.4812C17.4357 4.51869 17.4078 4.55755 17.3866 4.59714ZM19.9004 3.80581L18.4683 5.11016V22.9751H19.9004V3.80581Z" fill="currentColor"/>
<path fill-rule="evenodd" clip-rule="evenodd" d="M12.3311 9.51229C12.3311 9.47591 12.3344 9.4415 12.3407 9.40904C12.3547 9.31716 12.3998 9.22483 12.4845 9.13957L15.0417 6.81037C15.3741 6.48427 16.0134 6.71728 16.0134 7.18308V23.4875C16.0134 23.767 15.7577 24 15.4509 24H12.8937C12.5869 24 12.3311 23.767 12.3311 23.4875V9.51229ZM13.4818 9.74529L14.9138 8.44093V22.9751H13.4818V9.74529Z" fill="currentColor"/>
<path d="M7.14964 14.0674C7.14332 14.0998 7.13997 14.1343 7.13997 14.1707V23.4875C7.13997 23.767 7.39577 24 7.70256 24H10.2598C10.5666 24 10.8223 23.767 10.8223 23.4875V11.8415C10.8223 11.3757 10.183 11.1427 9.85055 11.4688L7.29336 13.798C7.2087 13.8832 7.16364 13.9755 7.14964 14.0674Z" fill="currentColor"/>
<path d="M2.00246 18.776C2.00745 18.6678 2.05329 18.5572 2.15339 18.4564C2.57532 18.0721 3.00365 17.6878 3.43198 17.3034C3.86031 16.9191 4.28864 16.5348 4.71058 16.1505C5.06859 15.8244 5.68236 16.0574 5.68236 16.5232V23.4875C5.68236 23.7669 5.42659 23.9999 5.11978 23.9999H2.56258C2.25579 23.9999 2 23.7669 2 23.4875V18.8291C2 18.8109 2.00084 18.7932 2.00246 18.776Z" fill="currentColor"/>
</svg>
