<svg width="24" height="25" viewBox="0 0 24 25" fill="none" xmlns="http://www.w3.org/2000/svg">
<path d="M2.49194 18.6513H2.45561C2.21935 18.6513 2.01931 18.4679 2.00123 18.2295C1.98297 17.9774 2.1694 17.7574 2.41955 17.735C2.9558 17.6938 3.27862 17.4829 3.44222 17.0749C3.61495 16.6303 3.52859 16.1031 3.21946 15.6907C2.44674 14.6733 2.48765 13.6833 2.59227 13.1515C2.31054 12.9177 2.14238 12.5693 2.14238 12.1889C2.14238 12.0652 2.15607 11.9553 2.18784 11.8498C3.00145 8.89361 4.63304 7.83491 4.8558 7.70198C5.39202 7.33521 6.05574 7.2299 6.72383 7.25733C7.16933 8.65054 8.46024 9.65895 9.97827 9.65895C11.1872 9.65895 12.2553 9.01708 12.8599 8.05011C13.3827 7.91718 13.9552 7.70637 14.5689 7.38545C14.9959 7.16082 15.4915 7.20206 15.8687 7.45412L18.7094 5.01125C18.7138 4.45207 18.6548 3.89293 18.5184 3.35217L18.4958 3.26508C18.414 2.95797 18.4775 2.63704 18.6685 2.38499C18.8549 2.14214 19.1367 2 19.4458 2H20.373C21.2592 2 21.9774 2.73331 21.9819 3.63624L22 23.5417C22 23.6609 21.9545 23.78 21.8682 23.8671C21.7818 23.9496 21.6682 24 21.5455 24L13.2963 23.8627C13.0961 23.8627 12.919 23.7297 12.8599 23.5417C12.8009 23.3491 12.8736 23.1383 13.0372 23.0238C13.0918 22.9875 17.6726 20.3566 17 15.0629C16.9863 15.0172 15.7684 11.8727 17.6227 8.78362C18.0909 7.99526 18.4046 7.1656 18.5727 6.32695L16.4092 8.19684C16.441 8.30695 16.4547 8.42607 16.4547 8.5452C16.4547 8.9302 16.2865 9.29697 16.0002 9.54443C15.2003 10.2319 13.5777 11.3823 11.496 11.5703L10.6597 13.619H12.2779C13.0051 13.619 13.705 13.8482 14.3049 14.2745L15.4094 15.0629V15.0675C15.4094 16.3049 15.0503 17.4371 14.5412 18.4225L13.4868 17.8861C13.2595 17.767 13.005 17.7073 12.7504 17.7073H10.7642L13.4459 20.109C12.596 21.1907 11.7005 21.9422 11.305 22.2539L7.72798 19.7378C7.46066 19.5503 7.16589 19.404 6.88937 19.2668L6.88715 19.2657C6.26892 18.9632 5.80989 18.4637 5.56449 17.8221C5.38282 17.3636 5.33279 16.8503 5.40546 16.3004L6.1917 10.461C5.59168 10.6583 4.94168 11.6849 4.47809 12.7023C4.28734 13.1239 3.89639 13.3944 3.46457 13.4219C3.40997 13.793 3.41913 14.4439 3.94186 15.1314C4.44635 15.8006 4.57818 16.6713 4.28732 17.4139C4.08283 17.9272 3.60554 18.5642 2.49194 18.6513Z" fill="currentColor"/>
<path d="M10.1477 7.96504C11.5385 7.96504 12.6658 6.81393 12.6658 5.39385C12.6658 3.97378 11.5385 2.82266 10.1477 2.82266C8.75713 2.82266 7.62985 3.97378 7.62985 5.39385C7.62985 6.81393 8.75713 7.96504 10.1477 7.96504Z" fill="currentColor"/>
</svg>
