<svg viewBox="0 0 24 24" fill="none" xmlns="http://www.w3.org/2000/svg">
<path d="M16.0751 9.95161C16.6 9.53327 16.9788 8.98805 17.137 8.37276C17.6863 9.2072 17.9996 10.1648 18 11.1852C18 13.8607 15.8589 16.1154 12.9334 16.818C13.5312 16.3111 13.9184 15.5157 13.9184 14.6185C13.9184 13.7842 13.2629 12.8998 12.5514 11.9399C11.9569 11.1379 11.3234 10.2832 11.0006 9.36109C10.7193 10.1719 10.3314 10.9263 9.96593 11.6372C9.411 12.7165 8.90772 13.6953 8.90772 14.6185C8.90772 15.6321 9.40122 16.5167 10.1351 17C6.67764 16.6431 4 14.1772 4 11.1855C4 9.31303 5.05244 7.64946 6.68497 6.57684C6.46031 7.04551 6.33331 7.55634 6.33331 8.09236C6.33331 8.99604 6.68568 9.83036 7.28048 10.5057C7.2397 10.1812 7.21782 9.85041 7.21782 9.51455C7.21782 5.77693 9.80818 2.6694 13.2323 2C13.0789 2.61339 12.9903 3.25242 12.9903 3.91451C12.9903 5.43181 13.6528 6.14849 14.3785 6.93345C15.0463 7.65589 15.7676 8.43615 16.0751 9.95161Z" fill="currentColor"/>
<path d="M17.0442 20.1292L17.0458 20.1287C17.9004 19.8943 18.2238 19.8055 3.0596 23.9693C2.74625 24.055 2.41288 23.9592 2.204 23.7071L2.18908 23.692C1.81605 23.2333 2.01986 22.5326 2.58212 22.3562C20.2665 16.8185 19.8265 16.9562 19.382 17.0952L19.3774 17.0967C19.2402 17.1396 19.1086 17.1808 19.516 17.0532C19.9788 16.907 20.4861 17.0683 20.7697 17.4614C20.7798 17.4715 20.7847 17.4765 20.7896 17.4867C21.2521 18.1421 20.9139 19.0645 20.1478 19.2762C15.5205 20.547 16.4202 20.3004 17.0442 20.1292Z" fill="currentColor"/>
<path d="M6.33407 19.5346L8 19.0021L2.85961 18.0131C2.44537 17.9325 2.03099 18.2324 2.00084 18.671V18.7068C1.98364 19.0694 2.23386 19.3871 2.57484 19.4677L4.88819 20L6.33407 19.5346Z" fill="currentColor"/>
<path d="M21.9954 22.884C21.9965 22.8667 21.9977 22.8493 21.9977 22.8306C22.0314 22.2204 21.6516 21.6799 21.1131 21.5673L18.3622 21L14 22.3167L20.68 23.9706C21.3053 24.1258 21.9353 23.6496 21.993 22.9377C21.993 22.9189 21.9942 22.9015 21.9954 22.884Z" fill="currentColor"/>
</svg>
