<svg  viewBox="0 0 24 24" fill="none" xmlns="http://www.w3.org/2000/svg">
<path d="M18.952 11.3467C18.7599 12.2491 18.3 13.0488 17.6626 13.6624C16.8836 9.02467 13.9168 9.08145 13.9168 4.80794C13.9168 3.83689 14.0244 2.89964 14.2107 2C10.0528 2.98179 6.90736 7.5395 6.90736 13.0213C6.90736 13.5139 6.93392 13.9991 6.98344 14.475C6.26118 13.4845 5.83331 12.2609 5.83331 10.9355C5.83331 10.1493 5.98752 9.40008 6.26032 8.7127C4.27796 10.2859 3 12.7258 3 15.4721C3 19.8599 6.25142 23.4766 10.4498 24C9.55863 23.2911 8.95937 21.9938 8.95937 20.5071C8.95937 18.2613 10.6407 15.7909 11.5007 12.7963C12.3618 15.7673 15.0438 18.2612 15.0438 20.5071C15.0438 21.823 14.5736 22.9896 13.8477 23.733C17.4 22.7026 20 19.3958 20 15.4717C19.9995 13.9751 19.6191 12.5706 18.952 11.3467Z" fill="currentColor"/>
</svg>
