<svg width="24" height="25" viewBox="0 0 24 25" fill="none" xmlns="http://www.w3.org/2000/svg">
<path fill-rule="evenodd" clip-rule="evenodd" d="M9.06064 21C7.18353 20.5789 5.58255 17.2107 5.38926 16.2002C3.12564 16.0598 1.38659 14.516 1 12.7196C3.84335 14.1792 6.13447 11.5407 8.06681 12.1301C8.12206 10.5302 9.1158 9.01438 10.7169 7.52678C10.7998 6.79697 9.5299 6.2075 8.03919 5.95493C12.1798 4.57959 12.4838 4.9445 14.7474 5.47779C17.5907 4.66384 19.5506 5.11289 21.069 6.15141C21.1242 6.26364 22.7805 6.74088 22.6425 6.79694C22.8909 6.90917 22.8909 7.66707 22.6701 7.66707C23.0289 7.9758 23.1117 8.36879 22.8357 8.73369C20.5169 11.7371 18.833 13.337 17.3423 14.1229C17.2319 15.0491 17.3423 16.0877 17.7288 17.2665C17.3147 16.9297 16.6798 15.2736 16.5142 14.4597C16.4589 14.4878 16.3762 14.5158 16.3209 14.5439C15.962 15.4421 15.6584 17.3789 14.6646 18.0805C15.1062 16.9296 15.4099 15.7788 15.1614 14.7123C12.677 15.8071 11.628 13.5054 9.22644 13.5335C7.10083 14.8528 7.87383 17.8281 9.06082 20.9996L9.06064 21ZM15.5479 6.20769C14.3057 8.64964 15.2994 10.9794 17.9495 11.6812C17.9495 11.6531 17.9219 11.597 17.9219 11.569C15.7686 10.4462 14.9957 8.67787 15.6306 6.292C15.603 6.26392 15.5754 6.23583 15.5478 6.20774L15.5479 6.20769ZM18.9157 6.62877C18.5015 6.82527 18.3359 7.2743 18.5015 7.69539C18.6671 8.08838 19.1364 8.25677 19.5229 8.08838C19.937 7.91998 20.1026 7.44285 19.937 7.04986C19.7438 6.65687 19.3022 6.46038 18.9157 6.62877Z" fill="currentColor"/>
</svg>
