<svg width="24" height="25" viewBox="0 0 24 25" fill="none" xmlns="http://www.w3.org/2000/svg">
<path d="M20.9997 18.8304C19.1138 17.9958 17.562 16.5817 16.3207 14.9821C17.3711 15.0516 18.6363 14.8894 20.188 14.3561C18.3737 13.6375 16.9175 12.3856 15.7716 10.9948C16.5594 10.9948 17.4904 10.8788 18.6124 10.5078C13.7425 8.60716 11.9998 2 11.9998 2C11.9998 2 10.2572 8.60691 5.38722 10.4847C6.50922 10.8556 7.44023 10.9947 8.22806 10.9716C7.08223 12.3626 5.62603 13.6143 3.8117 14.3329C5.36331 14.8661 6.65253 15.0051 7.67895 14.9589C6.43756 16.5585 4.88591 17.9957 3 18.8072C6.89121 20.2444 9.1829 19.7344 10.4959 18.9231L10.1139 24H13.8857L13.5037 18.9231C14.7931 19.7575 17.1087 20.2676 21 18.8301L20.9997 18.8304Z" fill="currentColor"/>
</svg>
