<svg width="24" height="25" viewBox="0 0 24 25" fill="none" xmlns="http://www.w3.org/2000/svg">
<path d="M9.40528 2.01173C10.4392 2.12941 11.1862 3.10151 11.0736 4.1829C10.9611 5.26428 10.0317 6.04566 8.99772 5.92781C7.96377 5.81013 7.21667 4.83819 7.32919 3.75664C7.44186 2.67526 8.37117 1.89404 9.40528 2.01173Z" fill="currentColor"/>
<path d="M4.06204 11.7417C4.19496 11.8113 4.32787 11.8344 4.46078 11.8344C4.77096 11.8344 5.05904 11.6721 5.21405 11.371L6.1225 9.58661C6.21106 9.4012 6.34413 9.2622 6.52123 9.14628C6.55446 9.12309 6.58217 9.10571 6.60987 9.08833C6.63757 9.07096 6.66528 9.05358 6.6985 9.03038L6.16671 11.533C5.98944 12.3442 6.36608 13.132 7.07516 13.4795L5.43556 19.2264V19.2728L6.4769 19.4118H6.52126C6.60973 19.4118 6.6763 19.3655 6.7427 19.3193L6.74288 19.3192L7.78423 18.1605L8.89204 14.2443L10.1771 14.7772C10.2215 14.8003 10.2436 14.8236 10.2436 14.8698L10.5981 17.1176H12.57L12.1713 14.5454C12.0605 13.8038 11.573 13.1783 10.9083 12.9001L9.44594 12.2976L10.2436 9.51691C10.2768 9.56329 10.3101 9.60971 10.3434 9.65613C10.3766 9.70241 10.4098 9.74869 10.4429 9.79493C10.7531 10.2816 11.2627 10.6061 11.8166 10.6987L13.3675 10.9536L14.0322 16.2602L14.6969 15.8198L14.0766 10.8609C14.2982 10.7218 14.4532 10.5133 14.4753 10.2351C14.5418 9.79482 14.2759 9.37779 13.877 9.26188L13.8106 8.79847C13.7885 8.58995 13.6112 8.45094 13.4119 8.47406C13.2125 8.49717 13.0796 8.68258 13.1017 8.89109L13.146 9.146L12.0161 8.96108C11.9275 8.93796 11.8388 8.89157 11.7724 8.79879C10.3323 6.59741 10.0442 6.48151 9.62321 6.45838L8.22732 6.36576L8.2262 6.36566C7.9608 6.34258 7.71484 6.32119 5.63503 7.617C5.19195 7.89503 4.83741 8.28893 4.59369 8.75251L3.68524 10.5369C3.50812 10.977 3.66315 11.5101 4.06204 11.7417Z" fill="currentColor"/>
<path d="M18.8624 19.4351L21.7206 22.3317C22.0085 22.6328 22.0973 23.0964 21.8758 23.4902C21.7208 23.8146 21.3662 24 21.0117 24H2.93217C2.22324 24 1.78015 23.1889 2.11243 22.5401L3.30879 20.2692C3.50816 19.8984 3.88479 19.713 4.26143 19.7594L6.34416 20.0607C6.63223 20.1069 6.94242 19.9912 7.14179 19.7594L8.69269 18.0678C8.86994 17.8824 9.11367 17.7665 9.3795 17.7665L12.8581 17.7434L15.3839 16.1213C15.9157 15.7738 16.6246 15.9359 16.9792 16.4921L18.7295 19.2728C18.7516 19.296 18.7738 19.325 18.7959 19.354C18.818 19.383 18.8402 19.4119 18.8624 19.4351Z" fill="currentColor"/>
</svg>
