<svg  viewBox="0 0 24 25" fill="none" xmlns="http://www.w3.org/2000/svg">
<path d="M22.8749 11.067C22.6517 10.9244 22.5202 11.1125 22.3959 11.2668C21.9624 11.8074 21.534 12.3595 20.6125 12.2829C21.0596 11.4099 21.4937 10.621 21.7433 9.75422C22.1726 8.26115 22.0623 6.84387 21.1429 5.53346C21.0692 5.42807 20.9932 5.32193 20.9056 5.22726C20.7761 5.08594 20.6441 4.90023 20.415 5.06405C20.1712 5.23903 20.2788 5.42173 20.4202 5.61228C20.9337 6.30303 21.0579 7.09643 21.0201 7.9211C21.0061 8.23787 20.9634 8.58348 20.5942 8.71799C20.215 8.85598 20.051 8.54692 19.8492 8.32815C19.4539 7.89934 19.0652 7.463 18.6498 7.05353C18.4682 6.87416 18.2635 6.50819 17.9585 6.77662C17.6711 7.02967 18.0483 7.22641 18.1877 7.40154C19.1138 8.56941 19.7151 9.83479 19.5781 11.3545C19.4597 12.6707 18.2422 14.1629 17.0222 14.4197C17.2182 13.7002 17.3 12.9871 17.1996 12.2664C17.171 12.0559 17.1197 11.8482 17.0711 11.6415C17.0189 11.4212 16.9291 11.2075 16.6432 11.2624C16.3807 11.3125 16.4164 11.5471 16.4255 11.7327C16.4756 12.7343 16.391 13.6983 15.6745 14.5025C15.6072 14.5772 15.5606 14.6892 15.3579 14.654C15.3129 14.1286 15.3795 13.5777 15.2456 13.043C15.149 12.6565 14.9703 12.3262 14.6763 12.0562C14.5419 11.9339 14.3759 11.855 14.2058 11.9954C14.0709 12.105 14.0589 12.2546 14.1369 12.4029C14.8943 13.8445 14.3267 15.083 13.5183 16.2909C13.2439 16.7022 12.9866 17.1247 12.7352 17.5499C12.7257 17.5656 12.7198 17.581 12.7122 17.5967C12.488 17.5645 12.2523 17.5437 12.0003 17.5437C11.7511 17.5437 11.5188 17.5558 11.2983 17.5777C11.2839 17.547 11.2721 17.5168 11.2542 17.486C10.8415 16.7828 10.3769 16.1082 9.98158 15.3975C9.46429 14.4679 9.36469 13.4951 9.83008 12.5096C9.9174 12.3257 10.0165 12.1495 9.8119 11.9975C9.57229 11.821 9.38737 11.9854 9.24767 12.1467C8.72263 12.7577 8.64617 13.4977 8.64136 14.2541C8.64089 14.378 8.64136 14.5012 8.64136 14.7609C7.79125 14.0185 7.63726 13.1715 7.58845 12.2877C7.57789 12.0958 7.60197 11.9033 7.5956 11.7115C7.58845 11.5293 7.64191 11.2924 7.35988 11.2605C7.07102 11.2275 6.99659 11.4506 6.94455 11.6632C6.75808 12.4186 6.68583 13.177 6.90788 13.9393C6.94859 14.0782 6.96459 14.224 6.99924 14.4019C6.67417 14.4828 6.48661 14.2742 6.2874 14.1431C4.3261 12.8563 3.85854 10.5858 5.12466 8.44046C5.37437 8.0183 5.69088 7.63178 5.98488 7.23456C6.0907 7.09143 6.22666 6.94362 6.08013 6.78357C5.89755 6.58231 5.70441 6.72228 5.5714 6.85967C5.07416 7.37061 4.59121 7.89527 4.1061 8.41691C3.92694 8.60926 3.75711 8.81912 3.44291 8.72537C3.14395 8.63659 3.06268 8.38807 3.0226 8.12928C2.88633 7.25084 3.07932 6.43224 3.54844 5.67958C3.67601 5.47484 3.89806 5.27539 3.62458 5.08063C3.30853 4.85491 3.15456 5.16986 3.00817 5.36131C1.88752 6.82508 1.81389 8.42415 2.39128 10.0981C2.64114 10.8243 2.98657 11.5111 3.42461 12.2691C2.6716 12.3749 2.2729 11.9842 1.86608 11.5771C1.65941 11.37 1.53044 10.8446 1.16577 11.0861C0.758949 11.3547 1.2099 11.6863 1.3628 11.9552C1.79165 12.7121 2.43945 13.255 3.27652 13.5334C3.84353 13.7224 4.27191 14.0519 4.64905 14.4797C5.4928 15.4367 6.52706 16.1573 7.71995 16.6269C8.50745 16.9369 9.1576 17.3809 9.68216 17.9912C8.18238 18.68 7.87286 19.928 7.85623 19.9999C7.75632 20.4385 8.03741 20.8821 8.48879 20.9796C8.55141 20.9937 8.61466 21 8.67634 21C9.05797 21 9.39968 20.7495 9.48636 20.3724C9.52179 20.2492 9.88848 19.1695 12.0008 19.1695C13.6808 19.1695 14.1102 20.2919 14.1498 20.4089C14.2822 20.8397 14.7474 21.0848 15.1912 20.9567C15.6341 20.828 15.8864 20.3755 15.754 19.9448C15.5986 19.4379 15.1225 18.6566 14.2335 18.1238C14.7667 17.4428 15.4509 16.9592 16.2932 16.6312C17.4469 16.1809 18.4541 15.4959 19.2752 14.5767C19.7151 14.0848 20.2086 13.7066 20.8578 13.4817C21.8139 13.1496 22.449 12.4503 22.8913 11.575C22.9804 11.396 23.0908 11.2055 22.8749 11.067Z" fill="currentColor" stroke="currentColor" stroke-width="0.5"/>
</svg>
