<svg  viewBox="0 0 24 25" fill="none" xmlns="http://www.w3.org/2000/svg">
<path d="M1 6.44791C1.22961 6.46147 1.45451 6.478 1.67598 6.49427C2.16324 6.53007 2.63442 6.56468 3.10547 6.56412C4.08627 6.56313 4.94048 6.19205 5.60725 5.46836C5.86887 5.18443 6.09798 5.12633 6.41659 5.30874C6.45669 5.33169 6.50127 5.3463 6.54586 5.36091C6.58657 5.37425 6.62728 5.38759 6.66458 5.40728C8.32944 6.29027 9.92937 6.26416 11.5034 5.14696C11.7325 4.9842 12.2479 4.94343 12.4635 5.09199C14.0387 6.176 15.6589 6.21399 17.3364 5.42329C17.845 5.18344 18.1862 5.24716 18.612 5.65835C19.6789 6.68806 21.0295 6.66461 22.3876 6.49773C22.496 6.48441 22.6038 6.46474 22.7431 6.4393C22.818 6.42563 22.9019 6.4103 23 6.3934C22.3853 7.1841 21.6472 7.53142 20.8111 7.5834C20.4393 7.60693 20.0643 7.56877 19.6888 7.53056C19.4004 7.50121 19.1116 7.47183 18.8237 7.47032C18.7283 7.46979 18.6309 7.46755 18.5326 7.46528C18.0522 7.45422 17.5501 7.44265 17.1507 7.62764C15.777 8.26265 14.4053 8.33678 12.9885 7.91552C12.323 7.71777 11.704 7.71117 11.036 7.96125C9.67883 8.47 8.31749 8.39275 7.01939 7.73163C6.38545 7.40908 5.76136 7.39225 5.07798 7.52413C3.68889 7.79238 2.36665 7.63688 1.22407 6.69777C1.17111 6.6543 1.12667 6.60003 1.07737 6.53981C1.0533 6.51041 1.02795 6.47958 1 6.44791Z" fill="currentColor"/>
<path fill-rule="evenodd" clip-rule="evenodd" d="M1.22407 12.5516C1.17153 12.5082 1.12738 12.4543 1.07853 12.3947C1.05411 12.3649 1.02851 12.3337 1.00011 12.3016C1.00009 12.3016 1.00013 12.3016 1.00011 12.3016M1.00011 12.3016C1.00009 12.3016 1.00013 12.3016 1.00011 12.3016C1.01444 12.3025 1.02876 12.3033 1.04306 12.3042C1.25753 12.3172 1.46785 12.3326 1.67527 12.3479C1.6752 12.3479 1.67533 12.3479 1.67527 12.3479C2.1627 12.3836 2.63426 12.4182 3.10547 12.4178C4.08627 12.4168 4.94048 12.0458 5.60725 11.3221C5.86887 11.0382 6.09798 10.9801 6.41659 11.1624C6.45669 11.1853 6.50127 11.1999 6.54586 11.2145C6.58657 11.2279 6.62728 11.2412 6.66458 11.2609C8.32944 12.1438 9.92937 12.1177 11.5034 11.0006C11.7325 10.8379 12.2479 10.7971 12.4635 10.9456C14.0387 12.0299 15.6589 12.0676 17.3364 11.2769C17.845 11.0371 18.1862 11.1008 18.612 11.512C19.6789 12.5412 21.0295 12.5181 22.3876 12.3509C22.4954 12.3377 22.6026 12.3182 22.7408 12.293C22.8163 12.2792 22.9009 12.2638 23 12.2468C22.3853 13.0374 21.6472 13.3844 20.8111 13.4367C20.439 13.4602 20.0638 13.4221 19.6881 13.3838C19.3999 13.3545 19.1114 13.3252 18.8237 13.3236C18.7283 13.3231 18.6309 13.3208 18.5325 13.3186C18.0522 13.3075 17.5501 13.296 17.1507 13.4809C15.777 14.1159 14.4053 14.19 12.9885 13.7688C12.323 13.5709 11.704 13.5644 11.036 13.8148C9.67883 14.3235 8.31749 14.2466 7.01939 13.5851C6.38545 13.2625 5.76136 13.2459 5.07798 13.3779C3.68889 13.6463 2.36665 13.491 1.22407 12.5516M1.00011 12.3016C1.00009 12.3016 1.00013 12.3016 1.00011 12.3016C1.01444 12.3025 1.02876 12.3033 1.04306 12.3042L1.00011 12.3016Z" fill="currentColor"/>
<path d="M1.00011 12.3016C1.00009 12.3016 1.00013 12.3016 1.00011 12.3016V12.3016Z" fill="currentColor"/>
<path d="M1.00008 18.1551C1.02867 18.1873 1.05441 18.2186 1.07897 18.2485C1.12764 18.3078 1.17169 18.3614 1.22407 18.4047C2.36665 19.3442 3.68889 19.4996 5.07798 19.2317C5.76136 19.0998 6.38545 19.1161 7.01939 19.4387C8.31749 20.0999 9.67883 20.1775 11.036 19.6684C11.704 19.4182 12.323 19.4245 12.9885 19.6227C14.4053 20.0435 15.777 19.9695 17.1507 19.3348C17.551 19.1493 18.0546 19.1611 18.536 19.1724C18.6331 19.1746 18.7294 19.1769 18.8237 19.1775C19.1115 19.179 19.4001 19.2083 19.6883 19.2375C20.064 19.2756 20.4391 19.3136 20.8111 19.2901C21.6472 19.2381 22.3853 18.891 23 18.1001C22.9039 18.1167 22.8213 18.1318 22.7476 18.1453C22.6061 18.1711 22.4972 18.191 22.3876 18.2044C21.0295 18.3713 19.6789 18.3951 18.612 17.3654C18.1862 16.9539 17.845 16.8905 17.3364 17.1303C15.6589 17.9212 14.0387 17.8829 12.4635 16.799C12.2479 16.6508 11.7325 16.6917 11.5034 16.854C9.92937 17.9715 8.32944 17.9973 6.66458 17.1143C6.62744 17.0947 6.58692 17.0815 6.54638 17.0682C6.50162 17.0536 6.45684 17.039 6.41659 17.0158C6.09798 16.8332 5.86887 16.8913 5.60725 17.1755C4.94048 17.8992 4.08627 18.2697 3.10547 18.271C2.63351 18.2714 2.1614 18.2369 1.67313 18.2011C1.45258 18.185 1.22871 18.1686 1.00008 18.1551Z" fill="currentColor"/>
</svg>
