<svg width="24" height="25" viewBox="0 0 24 25" fill="none" xmlns="http://www.w3.org/2000/svg">
<path d="M20.2035 14.6566C19.8833 14.9483 19.5191 15.2687 19.1083 15.692C18.8077 14.8685 18.5315 13.9759 18.1916 13.1696C18.1916 13.1297 16.7885 10.7444 15.7692 9.16557V9.16517C15.2744 9.64198 14.813 10.2896 14.4004 11.0871C13.6523 9.43401 12.9508 7.65485 12.5157 5.36701C12.3692 4.76012 12.143 4.28049 11.8703 4C10.7581 4.77647 9.69698 5.90807 8.71707 7.36323C8.36257 7.9354 8.22822 9.01073 7.82 9.55976C7.78573 9.61123 3.16115 17.1903 1 21H23C22.1787 19.0955 21.2449 15.9949 20.2036 14.6566L20.2035 14.6566ZM11.6798 7.65525C11.6798 10.9502 10.6776 13.7473 10.0444 17.3395V17.3391C9.49217 16.8631 8.95606 16.2894 8.44098 15.6234C7.85868 16.3592 7.25014 16.9756 6.62231 17.4652C6.33875 17.7636 6.06646 18.1179 5.80831 18.5233C5.5638 18.2029 5.37572 17.8825 5.18253 17.6654C4.43213 18.1287 3.75244 19.0212 3.03391 19.6848C3.62542 17.9687 5.04577 16.6305 8.2672 11.3963C8.72929 9.54286 9.48942 8.29598 9.81938 7.33479C10.587 6.71115 10.3425 6.35683 11.7383 5.31538C11.6665 5.65454 11.6249 6.02441 11.6161 6.40231C11.6161 6.8085 11.6797 7.23743 11.6797 7.65522L11.6798 7.65525ZM16.3535 15.4231C15.784 14.5138 15.3392 12.9521 14.7744 11.9908C15.075 11.4589 15.4662 10.8182 15.8084 10.2747C16.2125 11.3288 16.4246 12.7098 16.4001 14.1246C16.3955 14.5591 16.38 14.9924 16.3535 15.423L16.3535 15.4231ZM20.3771 17.3052C20.0812 16.9792 19.761 16.8076 19.4555 16.516L19.4556 16.5156C19.7332 16.1481 20.0188 15.8137 20.3111 15.5145C20.7096 16.5554 21.2302 17.3108 21.5676 18.4432C21.157 18.0829 20.7561 17.717 20.3771 17.3048L20.3771 17.3052Z" fill="currentColor"/>
</svg>
