<svg width="24" height="25" viewBox="0 0 24 25" fill="none" xmlns="http://www.w3.org/2000/svg">
<path d="M9.03761 12.2268C9.52044 12.2268 9.91183 11.8454 9.91183 11.3749C9.91183 10.9043 9.52044 10.5227 9.03761 10.5227C8.55477 10.5227 8.16326 10.9043 8.16326 11.3749C8.16326 11.8454 8.55477 12.2268 9.03761 12.2268Z" fill="currentColor"/>
<path d="M15.1731 12.2268C15.656 12.2268 16.0473 11.8454 16.0473 11.3749C16.0473 10.9043 15.656 10.5227 15.1731 10.5227C14.6903 10.5227 14.2989 10.9043 14.2989 11.3749C14.2989 11.8454 14.6903 12.2268 15.1731 12.2268Z" fill="currentColor"/>
<path d="M8.86274 15.2093C8.86274 16.8999 10.6592 18.2714 12.0037 18.2714C13.3481 18.2714 15.1453 16.8999 15.1453 15.2093C15.1453 13.5189 8.86274 13.5189 8.86274 15.2093Z" fill="currentColor"/>
<path fill-rule="evenodd" clip-rule="evenodd" d="M13.3316 4.1078C15.3779 4.0251 21.0017 4.38285 23 10.5227L23 10.5227C23 10.5227 22.4889 12.2758 19.9678 12.4963C20.1402 13.2373 20.2624 13.9416 20.2624 14.4285C20.2624 18.2977 16.9083 21 12.106 21C7.30336 21 3.94897 18.2976 3.94897 14.4285C3.94897 13.9474 4.06977 13.2467 4.2403 12.5071C1.54312 12.366 1 10.5227 1 10.5227C2.99855 4.38202 8.62354 4.02477 10.6694 4.1078C11.0827 4.03876 11.5265 4 12.0041 4C12.4658 4 12.9069 4.03853 13.3316 4.1078ZM4.99355 14.4292C4.99355 18.2651 8.56574 19.9822 12.1056 19.9822H12.1052C15.645 19.9822 19.2169 18.2652 19.2166 14.4292C19.2166 13.9138 19.0324 13.0134 18.7957 12.1054C18.2716 11.5292 17.5748 10.4164 16.8146 9.20225C15.9685 7.8509 15.0438 6.37394 14.1908 5.37134C13.5643 5.15203 12.8452 5.01911 12.0038 5.01911C11.1372 5.01911 10.4068 5.16829 9.77911 5.40675C8.93428 6.40859 8.02088 7.86781 7.18433 9.20425C6.56487 10.1939 5.98754 11.1162 5.5114 11.7356C5.22988 12.7646 4.99355 13.8482 4.99355 14.4292Z" fill="currentColor"/>
</svg>
