<svg viewBox="0 0 24 24" fill="none" xmlns="http://www.w3.org/2000/svg">
<path d="M13.1297 13.5V14.9344L14.5 14.9335L14.5008 20.5001L9.5 20.4999L9.49927 8.50107L14.4991 8.5L14.4995 13.509L13.1297 13.5Z" fill="currentColor"/>
<path fill-rule="evenodd" clip-rule="evenodd" d="M12.0282 2C16.1206 2 17.8444 5.01267 17.9161 5.14139C18.0955 5.46459 17.9768 5.87059 17.6503 6.04827C17.5471 6.10459 17.4355 6.13132 17.3251 6.13132L17.326 23H6.68898L6.68731 6.11133C6.57194 6.11388 6.45459 6.0894 6.3465 6.02948C6.02223 5.85027 5.90457 5.44717 6.08386 5.12531C6.1546 4.99839 7.86305 2.02178 11.9834 2.00015L12.0282 2ZM13.8728 4.18783L10.0244 4.18843V4.79912L13.8728 4.79852V4.18783ZM13.8732 5.66272L10.0244 5.66287V6.27355L13.8732 6.2734V5.66272ZM8.52507 7.56301L8.52674 21.1912L15.4519 21.1908L15.4502 7.56256L8.52507 7.56301Z" fill="currentColor"/>
</svg>
