<svg  viewBox="0 0 24 24" fill="none" xmlns="http://www.w3.org/2000/svg">
<path d="M2.71077 12.2289C3.37937 13.1036 4.16142 13.8626 5.03079 14.4815C5.49972 14.808 6.00804 15.0586 6.54039 15.2257C7.12635 15.4109 7.74396 15.4346 8.33996 15.2948C8.50301 15.258 8.66243 15.2034 8.81579 15.1321C8.96916 15.0598 9.11751 14.975 9.25962 14.8784C9.34095 14.8208 9.41353 14.7593 9.48729 14.6967C9.53707 14.6545 9.58749 14.6118 9.6414 14.5696C9.74396 14.4892 9.82032 14.4009 9.89725 14.3119C9.92071 14.2848 9.94421 14.2576 9.96853 14.2305C10.3372 13.7857 10.6636 13.2997 10.9427 12.7803C11.2933 12.1358 11.595 11.4948 11.8896 10.869C12.0449 10.5391 12.1982 10.2134 12.3557 9.89364C12.7672 8.98457 13.2791 8.1361 13.88 7.36837C14.1687 7.01124 14.5027 6.70295 14.8714 6.45294C15.245 6.2137 15.651 6.04332 16.0736 5.94851C17 5.80908 17.9423 5.88697 18.8398 6.17717C18.9009 6.19794 18.9662 6.16371 18.9906 6.09793C19.015 6.03236 18.9904 5.95697 18.9341 5.9237C18.0436 5.33059 17.0271 5.01177 15.9894 5C14.8821 5.05193 13.8277 5.54057 13.0149 6.3785C12.2505 7.16622 11.5956 8.07589 11.0715 9.07762C10.8322 9.50863 10.6062 9.9453 10.3844 10.3738C10.1168 10.8909 9.85534 11.3961 9.58415 11.865C9.363 12.2787 9.10397 12.6658 8.8109 13.02L8.60515 13.2406C8.5758 13.264 8.54689 13.2898 8.51803 13.3156C8.47871 13.3507 8.43948 13.3857 8.3994 13.4143C8.33404 13.462 8.26523 13.5035 8.19364 13.5385C8.12275 13.5749 8.04892 13.6035 7.97302 13.6239C7.61234 13.7233 7.23594 13.7299 6.8725 13.6431C6.45597 13.5462 6.05225 13.3916 5.67031 13.1827C4.83692 12.7248 4.04916 12.1704 3.32054 11.5286C2.94379 11.2032 2.562 10.8725 2.19771 10.5169C2.06699 10.3893 1.93433 10.262 1.80123 10.1343C1.56344 9.90625 1.32415 9.67673 1.09215 9.44162C1.0733 9.42816 1.04892 9.42797 1.03008 9.44143C1.00345 9.45739 0.992557 9.49374 1.00535 9.52413C1.47875 10.4955 2.05098 11.4031 2.71077 12.2289Z" fill="currentColor"/>
<path d="M22.9981 12.691C22.9783 11.6079 22.7233 10.5453 22.2541 9.59072C22.008 9.09046 21.6853 8.6398 21.3005 8.25793C20.8898 7.86245 20.3997 7.5781 19.8698 7.4274C19.7407 7.38854 19.6092 7.35985 19.4764 7.34151C19.3462 7.32009 19.2147 7.30883 19.0829 7.30774H18.8873L18.3747 7.34678C18.1439 7.36258 17.9144 7.39744 17.6882 7.45082C17.6479 7.45997 17.6064 7.46752 17.5649 7.47505C17.4887 7.48891 17.4128 7.50272 17.3449 7.52636L17.0039 7.64093C16.5449 7.80272 16.11 8.03787 15.7138 8.33857C15.5219 8.49473 15.3381 8.66251 15.1631 8.84101C14.9928 9.01932 14.8334 9.2098 14.6863 9.411C14.1602 10.1722 13.7132 10.9945 13.3534 11.8632C13.0224 12.6525 12.6482 13.4192 12.2327 14.1591C11.8247 14.8341 11.2889 15.4058 10.6613 15.8356C10.0526 16.2433 9.3514 16.457 8.63707 16.4525C7.88715 16.4218 7.15332 16.2055 6.49124 15.82C5.79169 15.428 5.13641 14.9485 4.53849 14.3908C3.92678 13.8205 3.34547 13.2121 2.79779 12.5687C2.36634 12.0471 1.95647 11.5145 1.54472 10.9794C1.42632 10.8256 1.30775 10.6715 1.18848 10.5174C1.15771 10.4715 1.10016 10.458 1.05492 10.4862C1.02997 10.5005 1.01151 10.5252 1.00386 10.5548C0.996212 10.5844 1.00004 10.616 1.01434 10.6423L1.11291 10.8283C1.28673 11.1567 1.46046 11.4849 1.65101 11.8112C1.68553 11.8697 1.71982 11.9285 1.75416 11.9874C1.83131 12.1196 1.90872 12.2523 1.98963 12.3839L2.35437 12.9384C2.84435 13.6862 3.38986 14.3889 3.98531 15.0391C4.59239 15.708 5.27976 16.2843 6.0287 16.7519C6.81073 17.2475 7.6854 17.5438 8.58703 17.6188C9.52157 17.6769 10.4513 17.4332 11.2599 16.9184C12.0421 16.4109 12.7161 15.7265 13.2365 14.9114C13.7 14.1308 14.1188 13.3197 14.4907 12.4828C14.8198 11.7178 15.2305 10.9979 15.7138 10.3378C15.8299 10.1907 15.9542 10.0517 16.0859 9.92129C16.2038 9.8089 16.3276 9.7112 16.4519 9.61313L16.4935 9.58028C16.7831 9.38128 17.0981 9.23038 17.4282 9.13251L17.6667 9.0597C17.7201 9.04474 17.7772 9.03719 17.8346 9.02962C17.867 9.02533 17.8995 9.02104 17.9314 9.01539C18.1087 8.98253 18.2879 8.96437 18.4679 8.96074H18.8804L18.9948 8.97635C19.0688 8.98053 19.1423 8.9927 19.2142 9.01285C19.2849 9.02683 19.3542 9.0479 19.4216 9.07532C19.6855 9.18045 19.9192 9.36003 20.0987 9.59589C20.3022 9.84756 20.4586 10.1403 20.5589 10.4577C20.7593 11.152 20.8164 11.8863 20.7259 12.6077C20.6632 13.2629 20.4667 13.8944 20.1512 14.456C20.0441 14.6409 19.8998 14.7967 19.7291 14.9114C19.6636 14.9581 19.5909 14.9915 19.5146 15.0104H19.4312L19.3288 15.0313C19.2596 15.0313 19.2001 15.0313 19.1332 15.0547C18.9386 15.0774 18.7415 15.0634 18.5513 15.0131C18.3708 14.961 18.2145 14.8375 18.1125 14.6669C17.9731 14.4293 17.9009 14.1523 17.9051 13.8703C17.9069 13.7214 17.9413 13.575 18.0052 13.4434C18.0979 13.2785 18.243 13.157 18.413 13.1024C18.4406 13.0909 18.4641 13.0699 18.4797 13.0424C18.4979 13.0101 18.5033 12.9713 18.4949 12.9344C18.4864 12.8977 18.4646 12.8661 18.4345 12.8472C18.1933 12.6996 17.9078 12.6649 17.6428 12.751C17.3527 12.8445 17.0956 13.0325 16.906 13.2898C16.5281 13.8023 16.3515 14.4575 16.4148 15.1119C16.445 15.4592 16.5364 15.797 16.6843 16.1064C16.8418 16.4325 17.0565 16.7218 17.3161 16.9575C17.8183 17.3871 18.4275 17.6411 19.064 17.6865C19.1099 17.6865 19.1566 17.688 19.2035 17.6894C19.2978 17.6923 19.3929 17.6953 19.4836 17.6865H19.7911L19.9127 17.6657C20.2445 17.6166 20.5667 17.5084 20.8666 17.3455C21.4272 17.0241 21.8977 16.5428 22.2279 15.9528C22.5205 15.4508 22.7304 14.8966 22.8479 14.3153C22.9603 13.783 23.0107 13.2372 22.9981 12.691Z" fill="currentColor"/>
<path d="M14.8116 16.7761C15.2238 16.8537 15.6239 16.9971 15.9994 17.202C16.7097 17.6051 17.3592 18.1291 17.9244 18.7553C18.0206 18.8665 18.0256 19.041 17.9359 19.159C17.846 19.2767 17.6906 19.2997 17.5765 19.2118C16.9986 18.7135 16.3665 18.2988 15.6951 17.9774C15.3748 17.8393 15.0404 17.745 14.6996 17.6968C14.3667 17.6564 14.03 17.6788 13.7038 17.7632C13.0124 17.9756 12.3468 18.2812 11.7217 18.6737C11.3874 18.8759 11.0413 19.0739 10.6827 19.2678C10.3192 19.4708 9.94191 19.6412 9.55428 19.7779C9.15165 19.9172 8.73317 19.9919 8.31155 19.9999C7.88256 20.0022 7.45613 19.9282 7.04805 19.7805C6.2744 19.4818 5.55899 19.0213 4.94016 18.4237C3.7672 17.2902 2.77909 15.9388 2.01963 14.4299C1.98418 14.3713 1.99807 14.292 2.0506 14.2525C2.10296 14.2132 2.17417 14.2285 2.20961 14.287C2.67514 14.9472 3.17663 15.5748 3.71098 16.1667C4.22918 16.7586 4.79627 17.2949 5.40472 17.7683C5.97851 18.2314 6.62191 18.5767 7.30441 18.7884C7.62869 18.8755 7.96234 18.9106 8.29538 18.893C8.63751 18.877 8.97773 18.8266 9.31172 18.7425C9.65815 18.6608 9.9963 18.5402 10.321 18.3829C10.6088 18.2444 10.8897 18.074 11.1756 17.9006C11.2217 17.8727 11.2679 17.8446 11.3143 17.8167C11.3312 17.806 11.3482 17.7952 11.3652 17.7845C12.0102 17.3775 12.7071 16.9377 13.5322 16.7761C13.9556 16.6957 14.3883 16.6957 14.8116 16.7761Z" fill="currentColor"/>
</svg>
