<svg viewBox="0 0 24 24" fill="none" xmlns="http://www.w3.org/2000/svg">

<path d="M12.3551 8.33594C12.0212 6.86556 11.2445 5.53299 10.1297 4.51756C7.76033 2.32019 4.09009 2 4.09009 2L5.21876 4.58544L7.05186 4.74153L6.30342 6.02631H8.93304L8.63287 7.06693C9.86802 7.66996 11.0706 8.33794 12.235 9.06812V9.36031C12.2828 9.2941 12.3409 9.23599 12.4071 9.18821C12.4502 9.22248 12.4879 9.263 12.5192 9.30828V9.10816C13.684 8.37838 14.8863 7.71042 16.1213 7.10696L15.8212 6.06634H18.4508L17.6543 4.80159L19.4874 4.6495L20.6121 2.0679C20.6121 2.0679 16.9419 2.3761 14.5686 4.56539C13.4664 5.56932 12.6945 6.88441 12.3551 8.33594Z" fill="currentColor"/>
<path d="M17.6982 12.9748L15.9252 10.1731L15.5131 12.2265L12.5793 10.0451C13.4223 11.9091 13.9278 13.9079 14.0722 15.9486C14.0993 16.6718 13.8497 17.8443 13.6494 18.7844C13.5838 19.0928 13.5234 19.3765 13.4799 19.6107C14.112 19.6418 14.7218 19.8546 15.2357 20.2239C15.7498 20.5931 16.1463 21.1029 16.3776 21.692C16.1283 21.8344 15.889 21.9935 15.6612 22.1683C15.1963 22.5829 14.5951 22.8121 13.9722 22.8121C13.3492 22.8121 12.748 22.5829 12.2832 22.1683C11.5425 21.5499 10.6084 21.2112 9.6435 21.2112C8.6786 21.2112 7.74445 21.5499 7.00385 22.1683C6.75995 22.366 6.49079 22.5302 6.20337 22.6566C6.26724 21.8228 6.64547 21.0445 7.26141 20.479C7.87741 19.9136 8.68515 19.6033 9.52132 19.6108H9.92156C10.6727 18.2043 11.2557 16.7147 11.6586 15.1721C12.1149 12.7467 12.347 9.56872 12.347 9.56872C12.347 9.56872 12.391 9.66078 12.4631 9.81287C12.8394 9.32857 14.4724 7.45146 16.6776 8.00379C21.2443 9.12852 22.2769 14.0074 22.2769 14.0074L20.2117 13.6071L18.3546 11.6059L17.6982 12.9748Z" fill="currentColor"/>
<path d="M6.70359 12.1741L5.17069 14.4556L3.20166 15.1838C3.20166 15.1838 3.46977 10.1769 7.8043 8.33579C10.2057 7.31924 12.3429 9.55652 12.3429 9.55652L9.60932 12.3582L8.88089 10.381L7.56811 13.4388L6.70359 12.1741Z" fill="currentColor"/>
<path d="M22.6131 24.0134H1.00021L1 22.0122C2.07304 22.0122 2.61134 22.4113 3.15039 22.811C3.69096 23.2118 4.2323 23.6132 5.31447 23.6132C6.39461 23.6132 6.93493 23.2133 7.47551 22.8132C8.01659 22.4128 8.55792 22.0122 9.6411 22.0122C10.7238 22.0122 11.2601 22.4124 11.7964 22.8127C12.3327 23.2129 12.8691 23.6132 13.9517 23.6132C15.0344 23.6132 15.5757 23.2129 16.1171 22.8127C16.6584 22.4124 17.1997 22.0122 18.2824 22.0122C19.3651 22.0122 19.9064 22.4124 20.4478 22.8127C20.9891 23.2129 21.5304 23.6132 22.6131 23.6132V24.0134Z" fill="currentColor"/>

</svg>
