<svg viewBox="0 0 24 24" fill="none" xmlns="http://www.w3.org/2000/svg">
<path d="M20 11.5C20 11.7762 19.6777 12 19.2799 12H4.72014C4.32232 12 4 11.7762 4 11.5C4 11.2238 4.32231 11 4.72014 11H19.2799C19.6777 11 20 11.2238 20 11.5Z" fill="currentColor"/>
<path d="M13.5524 4.89638V2H10.4468V4.89638C7.70358 5.45512 5.55435 7.46278 5 10H19C18.4448 7.46278 16.2958 5.45507 13.5522 4.89638H13.5524Z" fill="currentColor"/>
<path d="M6 16.5417C6 16.7952 5.77628 17 5.5 17C5.2234 17 5 16.7952 5 16.5417V14.4586C5 14.2051 5.22372 14 5.5 14C5.77628 14 6 14.2051 6 14.4586V16.5417Z" fill="currentColor"/>
<path d="M6 20.5417C6 20.7952 5.77628 21 5.5 21C5.2234 21 5 20.7952 5 20.5417V18.4586C5 18.2051 5.22372 18 5.5 18C5.77628 18 6 18.2051 6 18.4586V20.5417Z" fill="currentColor"/>
<path d="M7 23.6945C7 23.8635 6.77628 24 6.5 24C6.2234 24 6 23.8635 6 23.6945V22.3057C6 22.1367 6.22372 22 6.5 22C6.77628 22 7 22.1367 7 22.3057V23.6945Z" fill="currentColor"/>
<path d="M11 23.6945C11 23.8635 10.7763 24 10.5 24C10.2234 24 10 23.8635 10 23.6945V22.3057C10 22.1367 10.2237 22 10.5 22C10.7763 22 11 22.1367 11 22.3057V23.6945Z" fill="currentColor"/>
<path d="M14 23.6945C14 23.8635 13.7763 24 13.5 24C13.2234 24 13 23.8635 13 23.6945V22.3057C13 22.1367 13.2237 22 13.5 22C13.7763 22 14 22.1367 14 22.3057V23.6945Z" fill="currentColor"/>
<path d="M18 23.6945C18 23.8635 17.7763 24 17.5 24C17.2234 24 17 23.8635 17 23.6945V22.3057C17 22.1367 17.2237 22 17.5 22C17.7763 22 18 22.1367 18 22.3057V23.6945Z" fill="currentColor"/>
<path d="M13 16.5417C13 16.7952 12.7763 17 12.5 17C12.2234 17 12 16.7952 12 16.5417V14.4586C12 14.2051 12.2237 14 12.5 14C12.7763 14 13 14.2051 13 14.4586V16.5417Z" fill="currentColor"/>
<path d="M15 20.5417C15 20.7952 14.7763 21 14.5 21C14.2234 21 14 20.7952 14 20.5417V18.4586C14 18.2051 14.2237 18 14.5 18C14.7763 18 15 18.2051 15 18.4586V20.5417Z" fill="currentColor"/>
<path d="M8 16.5417C8 16.7952 7.77628 17 7.5 17C7.2234 17 7 16.7952 7 16.5417V14.4586C7 14.2051 7.22372 14 7.5 14C7.77628 14 8 14.2051 8 14.4586V16.5417Z" fill="currentColor"/>
<path d="M9 20.5417C9 20.7952 8.77628 21 8.5 21C8.2234 21 8 20.7952 8 20.5417V18.4586C8 18.2051 8.22372 18 8.5 18C8.77628 18 9 18.2051 9 18.4586V20.5417Z" fill="currentColor"/>
<path d="M16 16.5417C16 16.7952 15.7763 17 15.5 17C15.2234 17 15 16.7952 15 16.5417V14.4586C15 14.2051 15.2237 14 15.5 14C15.7763 14 16 14.2051 16 14.4586V16.5417Z" fill="currentColor"/>
<path d="M17 20.5417C17 20.7952 16.7763 21 16.5 21C16.2234 21 16 20.7952 16 20.5417V18.4586C16 18.2051 16.2237 18 16.5 18C16.7763 18 17 18.2051 17 18.4586V20.5417Z" fill="currentColor"/>
<path d="M10 16.5417C10 16.7952 9.77628 17 9.50064 17C9.22404 17 9.00032 16.7952 9.00032 16.5417L9 14.4586C9 14.2051 9.22372 14 9.50032 14C9.77661 14 9.99968 14.2051 9.99968 14.4586L10 16.5417Z" fill="currentColor"/>
<path d="M12 20.5417C12 20.7952 11.7763 21 11.5006 21C11.224 21 11.0003 20.7952 11.0003 20.5417L11 18.4586C11 18.2051 11.2237 18 11.5003 18C11.7766 18 11.9997 18.2051 11.9997 18.4586L12 20.5417Z" fill="currentColor"/>
<path d="M19 16.5417C19 16.7952 18.7763 17 18.5006 17C18.224 17 18.0003 16.7952 18.0003 16.5417L18 14.4586C18 14.2051 18.2237 14 18.5003 14C18.7766 14 18.9997 14.2051 18.9997 14.4586L19 16.5417Z" fill="currentColor"/>
<path d="M19 20.5417C19 20.7952 18.7763 21 18.5006 21C18.224 21 18.0003 20.7952 18.0003 20.5417L18 18.4586C18 18.2051 18.2237 18 18.5003 18C18.7766 18 18.9997 18.2051 18.9997 18.4586L19 20.5417Z" fill="currentColor"/>
</svg>
