<svg viewBox="0 0 24 24" fill="none" xmlns="http://www.w3.org/2000/svg">
<path d="M18.6697 21C17.5498 21 16.9026 20.6097 16.4548 20.317C16.0815 20.073 15.8574 19.9512 15.3349 19.9512C14.7873 19.9512 14.5882 20.0975 14.215 20.317C13.7671 20.6097 13.1449 21 12 21C10.8801 21 10.2579 20.6097 9.78502 20.317C9.41178 20.073 9.18768 19.9512 8.66514 19.9512C8.11761 19.9512 7.91847 20.0975 7.54525 20.317C7.09736 20.6097 6.47518 21 5.33027 21C4.21038 21 3.5882 20.6097 3.11529 20.317C2.74205 20.073 2.54293 19.9512 1.99541 19.9512C1.44788 19.9512 1 19.5122 1 18.9756C1 18.439 1.44788 18 1.99541 18C3.11529 18 3.73748 18.3903 4.21038 18.683C4.58362 18.927 4.78275 19.0488 5.33027 19.0488C5.87779 19.0488 6.07694 18.9025 6.45016 18.683C6.89804 18.3903 7.52023 18 8.66514 18C9.78502 18 10.4072 18.3903 10.8801 18.683C11.2534 18.927 11.4775 19.0488 12 19.0488C12.5475 19.0488 12.7467 18.9025 13.1199 18.683C13.5678 18.3903 14.19 18 15.3349 18C16.4548 18 17.102 18.3903 17.5498 18.683C17.9231 18.927 18.1472 19.0488 18.6697 19.0488C19.1925 19.0488 19.4164 18.9025 19.7896 18.683C20.2375 18.3903 20.8597 18 22.0046 18C22.5521 18 23 18.439 23 18.9756C23 19.5122 22.5521 19.9512 22.0046 19.9512C21.4571 19.9512 21.2579 20.0975 20.8847 20.317C20.412 20.6097 19.7898 21 18.6697 21Z" fill="currentColor"/>
<path d="M10.662 12.5716C11.0651 12.8573 11.2802 13 11.8715 13C12.4629 13 12.678 12.8286 13.0811 12.5716C13.5649 12.2288 14.2369 11.7717 15.4735 11.7717C15.8498 11.7717 16.1993 11.8289 16.5486 11.9146C17.14 12.086 17.5431 12.3717 17.8658 12.6002C17.9464 12.6574 18.0002 12.6859 18.0809 12.7431C18.2691 12.2575 18.511 11.7432 18.8067 11.372C19.183 11.5433 19.5861 11.6577 20.0163 11.6577C21.656 11.6577 23 10.2294 23 8.48677C23 6.74419 21.656 5.31585 20.0163 5.31585C18.3766 5.31585 17.0325 6.71568 17.0325 8.48677C15.8768 8.3439 14.3176 7.3442 13.7531 6.68701C12.5973 5.37283 11.0919 3.51608 8.99521 4.11609C6.33399 4.85878 5.28565 7.11566 5.15139 7.37272C4.77508 8.22977 5.12458 9.25818 5.93083 9.65812C6.7373 10.058 7.70499 9.68662 8.08132 8.82978C8.10813 8.77259 8.61888 7.74419 9.80167 7.42995C10.1512 7.42995 11.0651 8.45836 11.6833 9.62965L6.95234 11.9435C6.87171 11.972 6.8179 12.0292 6.73727 12.0864C7.1404 11.915 7.62433 11.8006 8.24253 11.8006C9.47913 11.7718 10.1779 12.2287 10.6619 12.5716L10.662 12.5716Z" fill="currentColor"/>
<path d="M22.0045 14.0244C20.8846 14.0244 20.2374 14.4116 19.7896 14.7019C19.4163 14.9439 19.1922 15.0647 18.6697 15.0647C18.2218 15.0647 17.9977 14.968 17.7489 14.8227C17.6991 14.7743 17.6244 14.7501 17.5498 14.7017C17.2512 14.5081 16.8778 14.2663 16.3302 14.121C16.0316 14.0484 15.7081 14 15.3348 14C14.2149 14 13.5928 14.3871 13.1199 14.6774C12.7466 14.9194 12.5225 15.0402 12 15.0402C11.4525 15.0402 11.2533 14.8951 10.8801 14.6774C10.4322 14.3871 9.81002 14 8.66511 14C8.06777 14 7.61984 14.0967 7.27146 14.242C6.94788 14.363 6.67412 14.5323 6.45018 14.6774L6.37553 14.7258C6.05195 14.9194 5.82801 15.0645 5.33027 15.0645C4.78274 15.0645 4.5836 14.9194 4.21038 14.7017C3.7625 14.4114 3.14031 14.0243 1.99541 14.0243C1.44788 14.0243 1 14.4597 1 14.9919C1 15.5242 1.44788 15.9596 1.99541 15.9596C2.54293 15.9596 2.74207 16.1047 3.11529 16.3224C3.56317 16.6127 4.18536 16.9998 5.33027 16.9998C6.37553 16.9998 6.97287 16.6611 7.47058 16.3708L7.54523 16.3224C7.91847 16.0804 8.14257 15.9596 8.66511 15.9596C9.21263 15.9596 9.41178 16.1047 9.785 16.3224C10.2329 16.6127 10.8551 16.9998 12 16.9998C13.1199 16.9998 13.7671 16.6127 14.2149 16.3224C14.5882 16.0804 14.7873 15.9596 15.3348 15.9596C15.5091 15.9596 15.6832 15.9837 15.8077 16.008C16.0317 16.0565 16.206 16.1775 16.4548 16.3226C16.9026 16.6129 17.5248 17 18.6697 17C19.7896 17 20.4368 16.6129 20.8847 16.3226C21.2579 16.0806 21.4821 15.9598 22.0046 15.9598C22.5521 15.9598 23 15.5244 23 14.9921C23 14.4598 22.5521 14.0244 22.0045 14.0244Z" fill="currentColor"/>
</svg>
