<svg viewBox="0 0 24 24" fill="none" xmlns="http://www.w3.org/2000/svg">
<path d="M5.99991 7C7.1047 7 8 6.10456 8 5C8 3.8955 7.1047 3 5.99991 3C4.8953 3 4 3.8955 4 5C4 6.1045 4.8953 7 5.99991 7Z" fill="currentColor"/>
<path d="M3.21415 8H3.49998L3.5 12.4069C3.4183 12.7943 3.30619 13.0609 2.77553 12.9883C2.40825 12.9398 2.08171 12.7219 2 12.4556V9.08983C2 8.99288 2.04071 8.65388 2.48967 8.36337L2.52784 8.33885C2.98351 8.04615 3.05535 8 3.21415 8Z" fill="currentColor"/>
<path d="M9.5 8H9.78583C9.945 8 10.0168 8.04615 10.4754 8.34067L10.5103 8.36314C10.9593 8.65366 11 8.99266 11 9.0896V12.4553C10.9183 12.7217 10.5918 12.9396 10.2245 12.988C9.69383 13.0607 9.58168 12.7943 9.49998 12.4069L9.5 8Z" fill="currentColor"/>
<path d="M8.96248 8L8.96222 13.301C8.81284 14.7745 8.61656 16.4672 8.42032 18.1596C8.22479 19.8459 8.0293 21.5318 7.88031 23H5.08191C4.93253 21.5265 4.73625 19.8337 4.54002 18.1414C4.34449 16.4551 4.14899 14.7692 4 13.301V8H8.96248Z" fill="currentColor"/>
<path d="M20 5C20 6.10456 19.1045 7 18 7C16.8953 7 16 6.1045 16 5C16 3.8955 16.8953 3 18 3C19.1046 3 20 3.8955 20 5Z" fill="currentColor"/>
<path d="M14.2608 8.36334C14.5218 8.0485 14.8261 8 14.913 8L15 8.00004V12.6274C14.8696 12.8939 14.6305 13.0393 14.413 12.9908C14.2174 12.9423 14.0435 12.7243 14 12.4578V9.09019C14 8.9932 14.0217 8.65401 14.2608 8.36334Z" fill="currentColor"/>
<path d="M21.087 8C21.1739 8 21.4782 8.0485 21.7392 8.36334C21.9783 8.65401 22 8.9932 22 9.09019V12.4578C21.9565 12.7243 21.7826 12.9423 21.587 12.9908C21.3695 13.0393 21.1304 12.8939 21 12.6274V8.00004L21.087 8Z" fill="currentColor"/>
<path d="M20.3859 8V13.5739L22 17.6887H19.7545L19.193 23H16.7717L16.2455 17.7179H14L15.5793 13.5739V8H20.3859Z" fill="currentColor"/>
</svg>
