<svg viewBox="0 0 24 24" fill="none" xmlns="http://www.w3.org/2000/svg">
<path d="M15.1242 16.3795L16.5233 14.3592C15.4981 13.37 13.9017 12.7342 12.1084 12.7342C10.2564 12.7342 8.61433 13.4124 7.59458 14.4576L9.05831 16.4929C9.34579 15.4202 10.6021 14.6127 12.1084 14.6127C13.5611 14.6127 14.7814 15.3638 15.1242 16.3795Z" fill="currentColor"/>
<path d="M18.3929 12.1598L19.7857 10.1487C18.2209 8.40269 15.3682 7.23438 12.1085 7.23438C8.73383 7.23438 5.79542 8.4867 4.27064 10.3358L5.7282 12.3625C5.96414 11.8022 6.43782 11.2344 7.20288 10.7215C8.37145 9.93815 10.098 9.38902 12.1085 9.38902C14.119 9.38902 15.8455 9.93815 17.0141 10.7215C17.6869 11.1725 18.1343 11.6662 18.3929 12.1598Z" fill="currentColor"/>
<path d="M21.5971 8.29864L23 6.27291C20.9384 3.73203 16.8346 1.99999 12.1085 1.99999C7.21033 1.99999 2.98058 3.86047 1 6.55364L2.4683 8.59529C2.84968 7.76597 3.58204 6.93401 4.72757 6.18931C6.5169 5.02608 9.11937 4.23458 12.1085 4.23458C15.0976 4.23458 17.7001 5.02608 19.4894 6.18931C20.4983 6.84519 21.1867 7.56878 21.5971 8.29864Z" fill="currentColor"/>
<path d="M13.664 18.2833C13.2366 17.9151 12.6635 17.7177 12.0735 17.7352C11.484 17.7431 10.922 17.9612 10.5095 18.3416C10.097 18.7222 9.86754 19.2345 9.87094 19.7671C9.8955 20.2986 10.1475 20.8005 10.5737 21.1674C10.9998 21.5343 11.567 21.7374 12.1558 21.734C12.7458 21.7261 13.3082 21.5064 13.7189 21.1235C14.1296 20.7406 14.3551 20.226 14.3454 19.6927C14.3368 19.1593 14.0912 18.6515 13.664 18.2833Z" fill="currentColor"/>
</svg>
