<svg viewBox="0 0 24 24" fill="none" xmlns="http://www.w3.org/2000/svg">
<path fill-rule="evenodd" clip-rule="evenodd" d="M16.4157 7.0841C18.3964 8.45822 19.4968 10.5067 19.1301 12.2306L19.1299 12.2303C18.9415 13.1563 17.9882 13.2487 16.7799 13.3658C15.4782 13.4919 13.8807 13.6467 12.6251 14.9034C12.6251 14.9034 12.0138 15.4279 11.7937 15.5529C9.81295 16.7022 7.56323 15.7528 7.17193 15.5529C6.78062 15.3532 5.97381 14.2039 5.80255 13.5793C5.73031 13.2695 5.63248 12.8986 5.54435 12.5645C5.48328 12.333 5.42686 12.1191 5.38685 11.9555C5.33807 11.8305 5.31351 11.6807 5.28911 11.5308C5.21577 10.9811 4.80008 9.80691 4.80008 9.80691C4.80008 9.80691 5.68042 8.23292 6.31618 7.93317C6.31618 7.93317 6.97648 7.40844 7.93018 6.95883C8.78612 7.20875 10.3022 7.85822 11.0359 9.63212C12.0629 12.1554 11.8429 14.7287 11.8429 14.7287C11.8429 14.7287 12.6253 11.9305 11.3292 9.13245C10.6201 7.60848 9.73978 6.88405 9.07948 6.53429C9.22616 6.48445 9.37286 6.45936 9.51956 6.43444C9.79841 6.39375 10.0916 6.33833 10.3993 6.28018C10.6583 6.23122 10.9275 6.18034 11.2069 6.13469C11.6472 6.48441 12.2829 7.13411 12.7476 8.2083C13.5056 9.98201 13.8236 11.3061 13.6279 13.3548C13.6279 13.3548 14.5083 11.0814 13.188 8.15833C12.7233 7.15909 12.3077 6.48448 11.9164 6.05979C12.332 6.00977 12.7967 5.98485 13.2368 6.00977C14.0438 6.93415 15.6822 9.35752 15.2175 12.8302C15.2175 12.8302 16.4646 9.50746 13.9214 6.05974C14.3372 6.10975 14.7529 6.2347 15.1686 6.38457C15.7555 7.00915 16.5136 7.95856 16.7336 9.00785C17.1004 10.8067 17.076 11.9058 16.9537 12.7803C16.9537 12.7803 17.6873 11.2064 17.1737 9.00785C16.9781 8.18341 16.6847 7.53371 16.4157 7.0841ZM3.19987 11.2959L2.91998 11.4444C2.91998 11.4444 2.00021 10.8751 1.92029 10.2315C1.8806 9.9119 1.77182 9.65941 1.69198 9.4741C1.61107 9.28633 1.55989 9.16752 1.6404 9.11773C1.80034 9.01876 2.64006 10.0583 2.64006 10.0583C2.64006 10.0583 2.77994 10.8999 3.19987 11.2959ZM10.1277 17.9721C10.1989 17.3281 9.70114 16.493 9.70114 16.493L9.70118 16.493C9.70118 16.493 11.0283 16.7555 12.0001 16.1111C12.0001 16.1111 11.8105 17.304 11.5261 18.1629C11.4077 18.4969 11.2892 18.7831 11.1707 19.0218C11.0049 19.3557 10.7204 19.642 10.3649 19.8091C10.3084 19.8344 10.2535 19.8597 10.2025 19.8832L10.2025 19.8832C10.0611 19.9485 9.94946 20 9.91459 20C9.79607 20 10.0804 19.4751 10.27 19.2842C10.27 19.2842 9.55901 19.6421 9.36939 19.9284C9.36939 19.9284 9.15596 19.4035 9.7959 18.9979C9.7959 18.9979 9.15594 19.2128 8.80051 19.499C8.80051 19.499 8.75307 18.9264 9.6537 18.5924C9.6537 18.5924 10.0566 18.6163 10.1277 17.9721ZM7.30287 16.1111C7.30287 16.1111 7.67713 16.7533 7.37772 17.2028C7.17744 17.5035 7.0218 17.5456 6.85102 17.5917C6.76649 17.6146 6.67825 17.6384 6.57905 17.6951C6.27964 17.8664 6.42935 18.3802 6.5042 18.1874C6.57905 17.9948 7.32773 17.9948 7.32773 17.9948L7.20292 18.4444L7.57718 18.3373C7.95145 18.2303 8.15112 17.6951 8.15112 17.6951C8.52538 17.3741 8.79992 16.5606 8.79992 16.5606C8.22634 16.5393 7.30287 16.1111 7.30287 16.1111ZM15.1997 14.1333C15.1997 14.1333 15.9849 13.9978 16.6353 13.8623C17.2859 13.7269 17.5999 13.7946 17.5997 13.7948C17.5997 13.7948 17.5997 15.0595 17.4203 15.3757C17.3698 15.47 17.3656 15.597 17.3609 15.7409C17.351 16.0449 17.3386 16.4243 16.8819 16.7308L16.4782 16.8438C16.4782 16.8438 16.3885 16.5501 16.5231 16.3694L15.8727 16.7533L15.7381 16.8888C15.7381 16.8888 15.5719 16.3239 15.8394 16.1204C15.7342 16.1908 15.4129 16.4105 15.3568 16.5047C15.3568 16.5047 14.9755 16.1885 15.8054 15.7142C15.8857 15.6701 15.985 15.6356 16.0747 15.6044C16.2606 15.5397 16.4053 15.4894 16.254 15.398C16.1788 15.3475 16.1114 15.3196 16.0461 15.2926C15.8194 15.1987 15.6177 15.1152 15.1997 14.1333ZM13.242 14.988C13.242 14.988 13.4104 15.4341 13.4104 15.5418C13.4104 15.5989 13.329 15.6328 13.2187 15.6787C13.0909 15.732 12.9243 15.8014 12.8001 15.9417L12.8632 16.0802C12.8632 16.0802 13.2841 15.8648 13.4947 15.8495L13.5578 16.111L13.9787 15.8495C14.1471 15.7417 14.2312 15.588 14.2102 15.4341L14.3996 14.5572C14.4206 14.542 13.684 14.6188 13.242 14.988ZM22.798 13.1518C23.3586 13.1512 23.8868 13.1507 23.9756 13.2224C24.1373 13.3529 23.4639 13.5485 22.7905 13.6354C22.1171 13.7223 19.8544 13.9833 18.3999 13.4615C18.3999 13.4615 19.7467 13.5049 19.7467 12.2223C19.7467 12.2223 20.5547 12.9832 21.5783 13.1136C21.8573 13.1528 22.3385 13.1523 22.798 13.1518ZM5.64159 13.1487C5.5109 12.5118 5.32789 12.0218 5.19721 11.7033C5.17114 11.3847 5.04045 10.6008 4.85745 10.1843C4.64838 9.76778 4.07348 9.32666 3.78605 9.13083C3.70767 9.08178 3.62929 9.13083 3.60304 9.20432C3.58859 9.28556 3.56814 9.38926 3.54613 9.50094L3.54613 9.50095C3.48848 9.79338 3.42004 10.1405 3.42004 10.2824C3.47235 10.8459 4.25632 11.6053 4.25632 11.6053L4.30863 11.6298C3.75979 11.8748 3.08049 12.2178 2.97601 12.3158C2.90192 12.3852 2.21482 12.8956 1.505 13.4229C0.962708 13.8257 0.407152 14.2384 0.101547 14.4719C-0.0291432 14.5698 -0.0291434 14.7414 0.0754823 14.8639C0.284551 15.0599 0.572011 15.3048 0.807141 15.3295C0.962662 15.3503 1.41573 15.2826 1.95752 15.2016C2.69014 15.0921 3.585 14.9583 4.12578 14.9865C4.34623 14.998 4.55233 15.0202 4.74711 15.0412C5.38346 15.11 5.89893 15.1656 6.3991 14.7904C6.40446 14.7854 6.38476 14.761 6.34823 14.7157L6.34822 14.7157C6.20583 14.5392 5.8078 14.0457 5.64159 13.1487ZM3.86461 13.4917C3.65554 13.5162 3.47272 13.4427 3.44648 13.2957C3.42041 13.1487 3.57717 13.0262 3.78623 12.9772C3.89067 12.9527 3.96923 12.9772 4.04761 13.0016C4.12599 13.026 4.20437 13.0995 4.20437 13.1732C4.20437 13.3203 4.04761 13.4673 3.86461 13.4917Z" fill="currentColor"/>
</svg>
