<svg viewBox="0 0 24 24" fill="none" xmlns="http://www.w3.org/2000/svg">
<path fill-rule="evenodd" clip-rule="evenodd" d="M18.5773 4.70754C18.5728 4.7096 18.5685 4.71191 18.5642 4.71424C18.5608 4.71611 18.5573 4.71799 18.5536 4.71975L18.5536 4.71954C18.5525 4.72002 18.5508 4.72102 18.5497 4.72181C18.5025 4.74437 18.4573 4.77027 18.4144 4.79871C18.2964 4.86604 18.1309 4.96092 17.9288 5.0768L17.9284 5.077L17.8846 5.10213C16.6507 5.81006 13.7613 7.4674 13.2735 7.65852L13.2699 7.65987C13.2095 7.50442 13.2146 7.06616 13.2179 6.79462C13.2204 6.59612 13.2228 6.39095 13.2116 6.20695C13.187 5.79992 12.8918 5.53915 12.4414 5.5265C11.9277 5.51188 11.1244 5.8412 11.0679 6.32557C11.0268 6.676 10.5632 8.30813 10.1126 9.23592C9.92674 9.61854 8.28396 10.6847 6.83461 11.6254L6.83425 11.6256L6.83224 11.6269L6.83222 11.6269C4.97662 12.8313 2.87423 14.1958 1.70805 15.3498L1.68583 15.374C0.936813 16.2938 0.858088 17.7726 1.48993 19.0536C1.88101 19.8465 3.12494 21.6808 6.22098 21.591L6.3162 21.5882L6.39299 21.5319C10.4346 18.5603 18.6103 14.8728 22.1018 13.2999L22.3944 13.1679C23.5633 12.6405 23.6401 10.3694 22.5699 7.9973C21.4996 5.62542 19.7458 4.18021 18.5772 4.70747L18.5773 4.70754ZM18.8281 5.26332C19.5509 4.93721 21.0373 6.08273 22.0142 8.24792C22.5019 9.32903 22.715 10.337 22.7162 11.1164L22.4572 10.8982C22.4456 10.2154 22.26 9.32906 21.8132 8.33876C20.8956 6.30491 19.5238 5.36177 18.9826 5.6059C18.6579 5.75239 18.455 6.36752 18.5289 7.2664L18.2649 7.04654C18.2061 6.11398 18.4233 5.44605 18.8281 5.26341L18.8281 5.26332ZM16.2893 14.8709L16.2837 14.8741L16.2836 14.8742C14.0558 16.1613 11.2417 17.7871 8.95638 19.0453C7.84927 19.6123 6.76234 20.1645 5.73903 20.6802C8.0227 19.3156 14.435 15.7795 19.7166 12.902C18.9178 13.355 17.8159 13.989 16.2893 14.8709ZM12.7405 7.96486C12.6827 7.9951 12.6171 8.02995 12.5398 8.0715C12.5822 8.04359 12.6244 8.01597 12.6667 7.98832L12.6671 7.98807L12.7314 7.94594C12.7347 7.95199 12.7375 7.95836 12.7403 7.96453L12.7405 7.96486ZM17.2922 6.98672L17.5413 6.86149L17.6477 6.80807C17.648 6.84053 17.6489 6.87373 17.6498 6.90701L17.0594 7.23778C15.9563 7.84421 14.5026 8.6061 12.9877 9.39C13.4574 9.11529 13.9231 8.84391 14.3769 8.58204C15.4644 7.98186 16.4802 7.42479 17.2921 6.98674L17.2922 6.98672ZM16.1154 8.19393C16.7041 7.88657 17.233 7.61878 17.6858 7.39963C17.6937 7.46853 17.7029 7.53815 17.7133 7.60854C16.4685 8.36496 14.2337 9.61644 10.2408 11.6903C9.02335 12.3225 7.80534 12.9465 6.68142 13.518C7.83903 12.8964 9.29624 12.0924 11.132 11.0541C12.9132 10.0469 14.6808 9.02755 16.1155 8.19389L16.1154 8.19393ZM18.7936 10.6527L18.8039 10.6711L18.804 10.6712C18.8098 10.6818 18.8157 10.6924 18.8218 10.7028C17.5126 11.4207 15.9737 12.2633 14.3689 13.1396L14.3894 13.1274L14.4062 13.1176L18.7936 10.6527ZM15.2795 9.75228C14.3307 10.2664 13.3077 10.8189 12.2944 11.3658L10.7028 12.2252C11.3136 11.8686 11.925 11.5129 12.5259 11.166C12.794 11.0236 13.0521 10.886 13.3002 10.753L13.3659 10.7198L13.4538 10.6756C14.1278 10.3354 14.7343 10.0287 15.2795 9.75228ZM4.99545 15.1942C3.86398 15.8369 2.89327 16.3625 2.25146 16.6557C2.40968 16.5498 2.60101 16.4273 2.83273 16.285C3.3371 16.0472 4.03229 15.6997 4.9955 15.1942L4.99545 15.1942ZM12.4391 11.6342L12.4602 11.6228L12.4607 11.6226C14.3875 10.5822 16.2091 9.59861 17.5617 8.85719C17.4805 8.90499 17.3967 8.95452 17.3102 9.00588L17.2424 9.04597L17.2421 9.04615C15.5842 10.0267 13.3735 11.3343 11.1179 12.6349L4.74759 16.0627C3.55055 16.667 2.57524 17.1544 1.98411 17.4487C1.91469 17.4722 1.85458 17.4904 1.80257 17.5045C3.09907 16.6768 8.42408 13.8019 12.4308 11.6387L12.4391 11.6342ZM5.74632 16.4617L2.12866 18.4407C2.72952 18.0353 4.10174 17.3036 5.74632 16.4617ZM2.41448 18.9098C3.26607 18.5401 4.97652 17.6084 8.02077 15.8853C8.30477 15.7428 8.59096 15.5999 8.87638 15.4575C5.91832 17.1668 3.05827 18.7812 2.21671 19.0631C2.26872 19.0178 2.33481 18.9666 2.41448 18.9098ZM5.09432 17.9998L4.0473 18.5879C3.81087 18.7048 3.60381 18.8039 3.4223 18.8876C3.8826 18.6436 4.44969 18.3427 5.09432 17.9998ZM5.82899 19.3238C6.11678 19.1775 6.42296 19.0217 6.74398 18.8578C5.52618 19.5321 4.51696 20.07 3.93984 20.3328C4.34812 20.1277 4.94922 19.8068 5.82886 19.3239L5.82899 19.3238ZM14.444 14.9983C13.7167 15.4083 12.9433 15.8443 12.1591 16.2854C10.8881 16.9684 9.57269 17.6671 8.27778 18.3494C9.50067 17.6602 10.9963 16.8069 12.8139 15.7653C13.1169 15.5916 13.4231 15.4161 13.7306 15.2401C16.3256 13.8707 18.0369 12.9293 19.1674 12.2765C19.3657 12.1711 19.5486 12.0727 19.7196 11.9794C19.7279 11.989 19.7362 11.9983 19.7446 12.0077L19.7592 12.0241C18.7174 12.5942 17.0697 13.5172 14.4441 14.9982L14.444 14.9983ZM18.307 7.45813L18.5667 7.59753C18.5806 7.69191 18.5978 7.78895 18.6173 7.88813L18.3618 7.78935C18.3402 7.67621 18.322 7.56579 18.307 7.45813ZM21.3716 10.0463C21.3645 10.3073 21.2997 10.4815 21.202 10.5256C20.9777 10.6268 20.3528 10.1464 19.9222 9.19198C19.4917 8.23781 19.5449 7.45143 19.7693 7.3502C19.9938 7.24893 20.6184 7.72914 21.049 8.68361C21.2781 9.19138 21.3694 9.65024 21.3715 9.98506L21.2585 9.88985L21.3716 10.0463ZM21.1415 8.64194C20.6949 7.65201 20.0378 7.11788 19.7277 7.25783C19.5513 7.33739 19.4641 7.64624 19.5041 8.07928L19.2972 7.90676C19.2266 7.30608 19.3326 6.88495 19.5211 6.79992C19.8343 6.6586 20.693 7.29755 21.2729 8.58277C21.5629 9.2257 21.6856 9.81371 21.6967 10.2585L21.4756 10.0723C21.4911 9.70688 21.392 9.19708 21.1415 8.64194ZM19.5067 8.1023C19.5395 8.42622 19.6414 8.81688 19.8295 9.23389C20.2763 10.2242 20.9334 10.7585 21.2436 10.6185C21.3626 10.5648 21.4404 10.4069 21.4665 10.1777L21.6902 10.4864C21.6673 10.8049 21.5779 11.0186 21.45 11.0763C21.1366 11.2177 20.2781 10.5786 19.6982 9.29323C19.4842 8.81902 19.3619 8.37504 19.3076 7.9959L19.5067 8.1023ZM19.6058 9.33483C20.1819 10.6117 21.0769 11.3562 21.4922 11.1688C21.6438 11.1004 21.7445 10.9012 21.7831 10.6142L22.0092 10.9262C21.9718 11.3034 21.8569 11.5554 21.6988 11.6268C21.2963 11.8084 20.204 11.0104 19.4747 9.39394C19.2662 8.93186 19.1276 8.4918 19.0453 8.09437L19.102 8.07558L19.0366 8.05033C19.0216 7.97495 19.0085 7.90082 18.9975 7.82892L19.1959 7.93519C19.2476 8.34974 19.3795 8.83331 19.6058 9.33481L19.6058 9.33483ZM18.9195 8.00508L18.7369 7.93445C18.7177 7.84169 18.7014 7.75105 18.6872 7.66255L18.8805 7.76622C18.8911 7.84378 18.904 7.92337 18.9195 8.00508ZM18.9441 8.12776C19.0291 8.52588 19.1704 8.96682 19.3819 9.43559C20.1594 11.159 21.2795 11.9272 21.7405 11.7192C21.9122 11.6417 22.0431 11.4051 22.0992 11.05L22.3261 11.3635C22.2747 11.8004 22.1357 12.0924 21.9472 12.1774C21.4555 12.3992 20.1296 11.4424 19.251 9.49493C19.0426 9.03307 18.8931 8.58956 18.7923 8.17799L18.9441 8.12776ZM21.8011 10.3466C21.8043 9.86185 21.6705 9.21724 21.3653 8.54073C20.7893 7.26401 19.8943 6.51974 19.479 6.70708C19.2434 6.81341 19.1306 7.23395 19.1823 7.81133L18.9719 7.63612C18.89 6.88438 19.0313 6.35786 19.2724 6.24908C19.6747 6.06759 20.7672 6.86541 21.4964 8.48173C21.8481 9.26112 22.0008 9.97697 22.0198 10.5307L21.8011 10.3466ZM21.5893 8.43991C20.8119 6.71671 19.6916 5.94881 19.2309 6.15668C18.9614 6.27827 18.7934 6.79015 18.8554 7.53888L18.6486 7.36655C18.5558 6.46386 18.7308 5.83087 19.0242 5.69853C19.5159 5.4767 20.8417 6.43335 21.7203 8.3808C22.1336 9.29684 22.317 10.142 22.344 10.8034L22.1288 10.6223C22.126 10.0467 21.9724 9.28909 21.5892 8.43983L21.5893 8.43991ZM10.5261 9.70484C10.9157 9.47168 11.3294 9.22931 11.6776 9.02525C12.0911 8.78319 12.4817 8.55429 12.7625 8.38381C12.8601 8.32465 12.9413 8.27519 13.0095 8.23199C13.0526 8.25192 13.1027 8.26818 13.1605 8.27568L13.0214 8.35418L13.0201 8.35496C12.7483 8.50832 12.4749 8.66262 12.2018 8.81692L12.1572 8.84213C11.5533 9.18336 10.989 9.50223 10.4656 9.79893L10.4242 9.81996C10.4615 9.78007 10.4956 9.74178 10.5261 9.70484ZM22.1434 12.6122C21.4203 12.9384 19.9341 11.7928 18.9572 9.62742C18.7471 9.16168 18.5881 8.70937 18.4748 8.28318L18.6905 8.21191C18.7946 8.62356 18.9469 9.0684 19.1583 9.53696C20.0896 11.6013 21.4348 12.5204 21.9891 12.2704C22.1923 12.1787 22.3474 11.903 22.4174 11.4895L22.6495 11.8099C22.5605 12.2192 22.3856 12.503 22.1434 12.6123L22.1434 12.6122ZM19.9761 7.80771C19.7418 7.91346 19.7773 8.51997 20.0535 9.13209C20.3298 9.74451 20.7611 10.1728 20.9955 10.067C21.2296 9.96137 21.1942 9.35455 20.9179 8.74214C20.6418 8.13023 20.2103 7.70207 19.9761 7.80771ZM20.9538 9.9746C20.8184 10.0357 20.4276 9.71436 20.1462 9.09066C19.865 8.46748 19.8826 7.96154 20.018 7.90046C20.1532 7.83948 20.544 8.1608 20.8253 8.78427C21.1067 9.40797 21.0889 9.91361 20.9538 9.9746ZM20.2776 9.03162C20.1518 8.75289 20.0815 8.42325 20.2248 8.35864C20.368 8.29402 20.5686 8.56485 20.6943 8.84361C20.8202 9.12263 20.8905 9.45227 20.7473 9.51688C20.6042 9.58146 20.4035 9.31064 20.2776 9.03162Z" fill="currentColor"/>
</svg>
