<svg width="178" height="165" viewBox="0 0 178 165" fill="none" xmlns="http://www.w3.org/2000/svg">
<path d="M36.288 138.384C35.488 138.384 34.72 138.512 33.984 138.768C33.28 139.024 32.656 139.408 32.112 139.92C31.6 140.4 31.184 141.008 30.864 141.744C30.544 142.48 30.384 143.344 30.384 144.336C30.384 146.32 30.944 147.808 32.064 148.8C33.216 149.792 34.608 150.288 36.24 150.288C37.2 150.288 38.032 150.176 38.736 149.952C39.44 149.728 40.064 149.488 40.608 149.232C41.248 149.68 41.728 150.176 42.048 150.72C42.368 151.232 42.528 151.856 42.528 152.592C42.528 153.904 41.904 154.928 40.656 155.664C39.408 156.368 37.68 156.72 35.472 156.72C33.456 156.72 31.632 156.432 30 155.856C28.368 155.248 26.96 154.416 25.776 153.36C24.624 152.272 23.728 150.976 23.088 149.472C22.448 147.968 22.128 146.304 22.128 144.48C22.128 142.368 22.464 140.528 23.136 138.96C23.84 137.36 24.784 136.048 25.968 135.024C27.152 134 28.512 133.232 30.048 132.72C31.616 132.208 33.264 131.952 34.992 131.952C37.296 131.952 39.072 132.368 40.32 133.2C41.568 134.032 42.192 135.104 42.192 136.416C42.192 137.024 42.048 137.6 41.76 138.144C41.472 138.656 41.136 139.104 40.752 139.488C40.208 139.232 39.552 138.992 38.784 138.768C38.016 138.512 37.184 138.384 36.288 138.384ZM56.2844 150.816C56.8284 150.816 57.4204 150.768 58.0604 150.672C58.7324 150.544 59.2284 150.384 59.5484 150.192V146.352L56.0924 146.64C55.1964 146.704 54.4604 146.896 53.8844 147.216C53.3084 147.536 53.0204 148.016 53.0204 148.656C53.0204 149.296 53.2604 149.824 53.7404 150.24C54.2524 150.624 55.1004 150.816 56.2844 150.816ZM55.9004 131.952C57.6284 131.952 59.1964 132.128 60.6044 132.48C62.0444 132.832 63.2604 133.376 64.2524 134.112C65.2764 134.816 66.0604 135.728 66.6044 136.848C67.1484 137.936 67.4204 139.232 67.4204 140.736V151.488C67.4204 152.32 67.1804 153.008 66.7004 153.552C66.2524 154.064 65.7084 154.512 65.0684 154.896C62.9884 156.144 60.0604 156.768 56.2844 156.768C54.5884 156.768 53.0524 156.608 51.6764 156.288C50.3324 155.968 49.1644 155.488 48.1724 154.848C47.2124 154.208 46.4604 153.392 45.9164 152.4C45.4044 151.408 45.1484 150.256 45.1484 148.944C45.1484 146.736 45.8044 145.04 47.1164 143.856C48.4284 142.672 50.4604 141.936 53.2124 141.648L59.5004 140.976V140.64C59.5004 139.712 59.0844 139.056 58.2524 138.672C57.4524 138.256 56.2844 138.048 54.7484 138.048C53.5324 138.048 52.3484 138.176 51.1964 138.432C50.0444 138.688 49.0044 139.008 48.0764 139.392C47.6604 139.104 47.3084 138.672 47.0204 138.096C46.7324 137.488 46.5884 136.864 46.5884 136.224C46.5884 135.392 46.7804 134.736 47.1644 134.256C47.5804 133.744 48.2044 133.312 49.0364 132.96C49.9644 132.608 51.0524 132.352 52.3004 132.192C53.5804 132.032 54.7804 131.952 55.9004 131.952ZM83.2738 131.952C84.5858 131.952 85.8658 132.144 87.1138 132.528C88.3938 132.88 89.4978 133.424 90.4258 134.16C91.3858 133.52 92.4578 132.992 93.6418 132.576C94.8578 132.16 96.3138 131.952 98.0098 131.952C99.2258 131.952 100.41 132.112 101.562 132.432C102.746 132.752 103.786 133.264 104.682 133.968C105.61 134.64 106.346 135.552 106.89 136.704C107.434 137.824 107.706 139.2 107.706 140.832V155.952C107.386 156.048 106.874 156.144 106.17 156.24C105.498 156.336 104.794 156.384 104.058 156.384C103.354 156.384 102.714 156.336 102.138 156.24C101.594 156.144 101.13 155.952 100.746 155.664C100.362 155.376 100.058 154.992 99.8338 154.512C99.6418 154 99.5458 153.344 99.5458 152.544V141.072C99.5458 140.112 99.2738 139.424 98.7298 139.008C98.1858 138.56 97.4498 138.336 96.5218 138.336C96.0738 138.336 95.5938 138.448 95.0818 138.672C94.5698 138.864 94.1858 139.072 93.9298 139.296C93.9618 139.424 93.9778 139.552 93.9778 139.68C93.9778 139.776 93.9778 139.872 93.9778 139.968V155.952C93.6258 156.048 93.0978 156.144 92.3938 156.24C91.7218 156.336 91.0338 156.384 90.3298 156.384C89.6258 156.384 88.9858 156.336 88.4098 156.24C87.8658 156.144 87.4018 155.952 87.0178 155.664C86.6338 155.376 86.3298 154.992 86.1058 154.512C85.9138 154 85.8178 153.344 85.8178 152.544V141.072C85.8178 140.112 85.5138 139.424 84.9058 139.008C84.3298 138.56 83.6258 138.336 82.7938 138.336C82.2178 138.336 81.7218 138.432 81.3058 138.624C80.8898 138.784 80.5378 138.944 80.2498 139.104V155.952C79.9298 156.048 79.4178 156.144 78.7138 156.24C78.0418 156.336 77.3378 156.384 76.6018 156.384C75.8978 156.384 75.2578 156.336 74.6818 156.24C74.1378 156.144 73.6738 155.952 73.2898 155.664C72.9058 155.376 72.6018 154.992 72.3778 154.512C72.1858 154 72.0898 153.344 72.0898 152.544V138.048C72.0898 137.184 72.2658 136.496 72.6178 135.984C73.0018 135.472 73.5138 134.992 74.1538 134.544C75.2418 133.776 76.5858 133.152 78.1858 132.672C79.8178 132.192 81.5138 131.952 83.2738 131.952ZM123.068 131.952C124.988 131.952 126.764 132.208 128.396 132.72C130.06 133.2 131.484 133.952 132.668 134.976C133.852 136 134.78 137.296 135.452 138.864C136.124 140.4 136.46 142.24 136.46 144.384C136.46 146.432 136.172 148.224 135.596 149.76C135.02 151.296 134.204 152.592 133.148 153.648C132.092 154.672 130.812 155.44 129.308 155.952C127.836 156.464 126.188 156.72 124.364 156.72C122.988 156.72 121.708 156.512 120.524 156.096V164.064C120.204 164.16 119.692 164.256 118.988 164.352C118.284 164.48 117.564 164.544 116.828 164.544C116.124 164.544 115.484 164.496 114.908 164.4C114.364 164.304 113.9 164.112 113.516 163.824C113.132 163.536 112.844 163.136 112.652 162.624C112.46 162.144 112.364 161.504 112.364 160.704V137.664C112.364 136.8 112.54 136.096 112.892 135.552C113.276 135.008 113.788 134.512 114.428 134.064C115.42 133.424 116.652 132.912 118.124 132.528C119.596 132.144 121.244 131.952 123.068 131.952ZM123.164 150.288C126.46 150.288 128.108 148.32 128.108 144.384C128.108 142.336 127.692 140.816 126.86 139.824C126.06 138.832 124.892 138.336 123.356 138.336C122.748 138.336 122.204 138.416 121.724 138.576C121.244 138.704 120.828 138.864 120.476 139.056V149.616C120.86 149.808 121.276 149.968 121.724 150.096C122.172 150.224 122.652 150.288 123.164 150.288ZM148.282 155.952C147.962 156.048 147.45 156.144 146.746 156.24C146.074 156.336 145.37 156.384 144.634 156.384C143.93 156.384 143.29 156.336 142.714 156.24C142.17 156.144 141.706 155.952 141.322 155.664C140.938 155.376 140.634 154.992 140.41 154.512C140.218 154 140.122 153.344 140.122 152.544V138.144C140.122 137.408 140.25 136.784 140.506 136.272C140.794 135.728 141.194 135.248 141.706 134.832C142.218 134.416 142.842 134.048 143.578 133.728C144.346 133.376 145.162 133.072 146.026 132.816C146.89 132.56 147.786 132.368 148.714 132.24C149.642 132.08 150.57 132 151.498 132C153.034 132 154.25 132.304 155.146 132.912C156.042 133.488 156.49 134.448 156.49 135.792C156.49 136.24 156.426 136.688 156.298 137.136C156.17 137.552 156.01 137.936 155.818 138.288C155.146 138.288 154.458 138.32 153.754 138.384C153.05 138.448 152.362 138.544 151.69 138.672C151.018 138.8 150.378 138.944 149.77 139.104C149.194 139.232 148.698 139.392 148.282 139.584V155.952Z" fill="#33312E"/>
<path fill-rule="evenodd" clip-rule="evenodd" d="M47.9454 19.4808C39.8208 28.617 34.696 40.477 34.1148 53.518L61.5802 60.0822L34.2011 59.9856C36.2407 88.5085 60.0409 111.015 89.1011 111.015C119.5 111.015 144.143 86.3875 144.143 56.0076C144.143 48.7566 142.739 41.8334 140.188 35.4944L104.364 36.1884L137.566 29.9108C128.266 12.6962 110.05 1 89.1011 1C77.953 1 67.5791 4.31217 58.9107 10.0055L81.8311 22.3037L47.9454 19.4808Z" fill="url(#paint0_linear_222_1011)"/>
<path d="M88.8209 67.205L127.788 115.962H49.854L88.8209 67.205Z" fill="white"/>
<path fill-rule="evenodd" clip-rule="evenodd" d="M85.5889 52.1628L88.95 55.0067L92.2143 52.1628L104.955 52.1629L95.2138 62.8731L141.747 122.09L98.4812 122.09V122.082L88.7912 109.921L79.1012 122.09L36.1533 122.09L82.692 62.8658L72.3381 52.1628L85.5889 52.1628ZM102.533 113.923H123.347L88.9583 69.7146L54.5962 113.923H75.6735L89.1033 97.0573L102.533 113.923Z" fill="#009400"/>
<path fill-rule="evenodd" clip-rule="evenodd" d="M36.1533 122.09L79.1012 122.09L88.7912 109.921L98.4812 122.09L141.747 122.09L95.2138 62.8731L104.955 52.1629L92.2143 52.1628L88.95 55.0067L85.5889 52.1628L72.3381 52.1628L82.692 62.8658L36.1533 122.09ZM74.8659 63.2691L24 128L81.943 128L88.7912 119.4L95.4595 128L154 128L102.942 63.1526L118.313 46.253L90.0069 46.2529L88.8939 47.2225L87.7479 46.2529L58.4047 46.2529L74.8659 63.2691Z" fill="white"/>
<defs>
<linearGradient id="paint0_linear_222_1011" x1="89.1288" y1="1" x2="89.1288" y2="111.015" gradientUnits="userSpaceOnUse">
<stop stop-color="#EA4600"/>
<stop offset="0.583333" stop-color="#FFA300"/>
</linearGradient>
</defs>
</svg>
