<svg width="89" height="87" viewBox="0 0 89 87" fill="none" xmlns="http://www.w3.org/2000/svg">
<path fill-rule="evenodd" clip-rule="evenodd" d="M16.3933 12.6601C10.8311 18.9188 7.32261 27.0433 6.92468 35.9769L25.7279 40.4737L6.9838 40.4075C8.38015 59.9468 24.6741 75.3648 44.5692 75.3648C65.3806 75.3648 82.2515 58.4938 82.2515 37.6824C82.2515 32.7152 81.2904 27.9725 79.5441 23.63L55.0184 24.1054L77.7491 19.805C71.3818 8.01234 58.9112 0 44.5692 0C36.937 0 29.8349 2.26897 23.9004 6.16916L39.592 14.5939L16.3933 12.6601Z" fill="url(#paint0_linear_276_1683)"/>
<path d="M44.3774 45.353L71.0547 78.7535H17.7001L44.3774 45.353Z" fill="white"/>
<path fill-rule="evenodd" clip-rule="evenodd" d="M42.1647 35.0485L44.4658 36.9967L46.7006 35.0485L55.4233 35.0486L48.7541 42.3855L80.6111 82.9515L50.991 82.9515V82.946L44.3571 74.615L37.7231 82.9515L8.32036 82.9515L40.1815 42.3805L33.093 35.0485L42.1647 35.0485ZM53.7649 77.3569H68.0146L44.4714 47.0722L20.9467 77.3569H35.3765L44.5707 65.803L53.7649 77.3569Z" fill="#009400"/>
<path fill-rule="evenodd" clip-rule="evenodd" d="M8.32036 82.9515L37.7231 82.9515L44.3571 74.615L50.991 82.9515L80.6111 82.9515L48.7541 42.3855L55.4233 35.0486L46.7006 35.0485L44.4658 36.9967L42.1647 35.0485L33.093 35.0485L40.1815 42.3805L8.32036 82.9515ZM34.8235 42.6568L0 87L39.6687 87L44.357 81.1083L48.9223 87L89 87L54.0448 42.577L64.5682 31.0001L45.1893 31L44.4274 31.6642L43.6428 31L23.554 31L34.8235 42.6568Z" fill="white"/>
<defs>
<linearGradient id="paint0_linear_276_1683" x1="44.5881" y1="0" x2="44.5881" y2="75.3648" gradientUnits="userSpaceOnUse">
<stop stop-color="#EA4600"/>
<stop offset="0.583333" stop-color="#FFA300"/>
</linearGradient>
</defs>
</svg>
