<svg viewBox="0 0 24 24" fill="none" xmlns="http://www.w3.org/2000/svg">
<path fill-rule="evenodd" clip-rule="evenodd" d="M19.178 2C18.4296 2 17.7118 2.29732 17.1825 2.82654L8.59356 11.4155C8.47769 11.5314 8.39549 11.6766 8.35574 11.8356L7.45164 15.452C7.37462 15.7601 7.46489 16.086 7.68945 16.3106C7.91401 16.5351 8.23993 16.6254 8.54803 16.5484L12.1644 15.6443C12.3234 15.6045 12.4686 15.5223 12.5845 15.4064L21.1735 6.81745C21.7027 6.28823 22 5.57044 22 4.822C22 4.07356 21.7027 3.35577 21.1735 2.82654C20.6442 2.29732 19.9264 2 19.178 2ZM18.4611 4.10514C18.6513 3.91502 18.9091 3.80821 19.178 3.80821C19.4469 3.80821 19.7047 3.91502 19.8949 4.10514C20.085 4.29526 20.1918 4.55313 20.1918 4.822C20.1918 5.09087 20.085 5.34874 19.8949 5.53886L11.4829 13.9508L9.57132 14.4287L10.0492 12.5171L18.4611 4.10514Z" fill="currentColor"/>
<path d="M4.71231 3.91791C3.99296 3.91791 3.30308 4.20367 2.79442 4.71233C2.28576 5.22099 2 5.91087 2 6.63022V19.2877C2 20.007 2.28576 20.6969 2.79442 21.2056C3.30308 21.7142 3.99296 22 4.71231 22H17.3698C18.0891 22 18.779 21.7142 19.2877 21.2056C19.7963 20.6969 20.0821 20.007 20.0821 19.2877V12.959C20.0821 12.4596 19.6773 12.0549 19.178 12.0549C18.6787 12.0549 18.2739 12.4596 18.2739 12.959V19.2877C18.2739 19.5275 18.1786 19.7574 18.0091 19.927C17.8395 20.0965 17.6096 20.1918 17.3698 20.1918H4.71231C4.47253 20.1918 4.24257 20.0965 4.07301 19.927C3.90346 19.7574 3.80821 19.5275 3.80821 19.2877V6.63022C3.80821 6.39044 3.90346 6.16048 4.07301 5.99093C4.24257 5.82137 4.47253 5.72612 4.71231 5.72612H11.041C11.5404 5.72612 11.9451 5.32134 11.9451 4.82202C11.9451 4.32269 11.5404 3.91791 11.041 3.91791H4.71231Z" fill="currentColor"/>
</svg>
