<svg width="24" height="24" viewBox="0 0 24 24" fill="none" xmlns="http://www.w3.org/2000/svg">
<g clipPath="url(#clip0_1_4821)">
<path fillRule="evenodd" clipRule="evenodd" d="M1.70711 0.292893C1.31658 -0.0976311 0.683417 -0.0976311 0.292893 0.292893C-0.0976311 0.683417 -0.0976311 1.31658 0.292893 1.70711L4.56854 5.98276C2.75978 7.53972 1.25046 9.41854 0.118963 11.5272C-0.034671 11.8135 -0.0398466 12.1566 0.105465 12.4472L0.106489 12.4488L0.107657 12.4512L0.111109 12.458L0.122456 12.4802C0.131994 12.4988 0.145475 12.5247 0.162872 12.5576C0.197659 12.6233 0.248142 12.7168 0.31409 12.834C0.44591 13.0684 0.639969 13.3985 0.894454 13.7926C1.40218 14.5787 2.15695 15.6294 3.14558 16.684C5.1046 18.7736 8.10061 21 12.0001 21L12.0165 20.9999C14.0849 20.9661 16.0963 20.3536 17.8261 19.2404L22.2929 23.7071C22.6834 24.0976 23.3166 24.0976 23.7071 23.7071C24.0976 23.3166 24.0976 22.6834 23.7071 22.2929L18.6552 17.241C18.6526 17.2383 18.6499 17.2356 18.6472 17.2329L6.76722 5.35292C6.76452 5.35021 6.7618 5.34752 6.75906 5.34485L1.70711 0.292893ZM14.0498 15.464L16.3715 17.7857C15.0438 18.5524 13.5374 18.9734 11.992 19C8.89523 18.9969 6.39407 17.2248 4.60466 15.3161C3.71828 14.3706 3.03555 13.4213 2.57453 12.7075C2.39604 12.4311 2.25177 12.1916 2.14269 12.0032C3.14945 10.2582 4.4504 8.70143 5.98716 7.40138L8.53612 9.95034C8.43662 10.1091 8.34816 10.275 8.27156 10.4469C8.05294 10.9375 7.93538 11.4672 7.92591 12.0043C7.91643 12.5414 8.01523 13.0749 8.21641 13.5729C8.41759 14.071 8.71702 14.5235 9.09686 14.9033C9.47669 15.2831 9.92914 15.5826 10.4272 15.7837C10.9253 15.9849 11.4588 16.0837 11.9958 16.0742C12.5329 16.0648 13.0626 15.9472 13.5533 15.7286C13.7252 15.652 13.8911 15.5635 14.0498 15.464ZM10.028 11.4422L12.5579 13.9722C12.3655 14.0363 12.1641 14.071 11.9606 14.0745C11.692 14.0793 11.4253 14.0299 11.1762 13.9293C10.9272 13.8287 10.701 13.679 10.5111 13.4891C10.3212 13.2992 10.1714 13.0729 10.0708 12.8239C9.97025 12.5749 9.92086 12.3081 9.92559 12.0396C9.92919 11.836 9.96382 11.6346 10.028 11.4422Z" fill="currentColor"/>
<path fillRule="evenodd" clipRule="evenodd" d="M23.882 12.4714C24.0349 12.1854 24.0396 11.8429 23.8945 11.5528L23.8926 11.5489L23.8891 11.5421L23.8778 11.5198C23.8682 11.5013 23.8548 11.4753 23.8374 11.4425C23.8026 11.3767 23.7521 11.2833 23.6861 11.166C23.5543 10.9317 23.3603 10.6015 23.1058 10.2075C22.5981 9.42134 21.8433 8.37062 20.8547 7.31608C18.896 5.22685 15.9007 3.00084 12.0022 3.00003C11.2182 2.99828 10.4356 3.08765 9.6722 3.26634C9.31887 3.34905 9.03807 3.61668 8.9385 3.96563C8.83893 4.31458 8.93621 4.69009 9.19269 4.94681L20.1327 15.8968C20.3307 16.095 20.6029 16.2011 20.8828 16.1891C21.1628 16.1771 21.4249 16.0483 21.6053 15.8339C22.4791 14.7953 23.2422 13.6684 23.882 12.4714ZM20.7527 13.6877L12.0733 5.00035C15.14 5.02799 17.6187 6.78864 19.3956 8.68397C20.2819 9.62943 20.9647 10.5787 21.4257 11.2926C21.6045 11.5694 21.7489 11.8093 21.8581 11.9978C21.5224 12.582 21.1533 13.1462 20.7527 13.6877Z" fill="currentColor"/>
</g>
<defs>
<clipPath id="clip0_1_4821">
<rect width="24" height="24" fill="white"/>
</clipPath>
</defs>
</svg>
