<svg viewBox="0 0 24 24" fill="none" xmlns="http://www.w3.org/2000/svg">
<path d="M5.33333 4C5.79357 4 6.16667 4.35817 6.16667 4.8V10.4C6.16667 10.8418 5.79357 11.2 5.33333 11.2C4.8731 11.2 4.5 10.8418 4.5 10.4V4.8C4.5 4.35817 4.8731 4 5.33333 4Z" fill="currentColor"/>
<path d="M6.16667 14.4H7.83333C8.29357 14.4 8.66667 14.0418 8.66667 13.6C8.66667 13.1582 8.29357 12.8 7.83333 12.8H2.83333C2.3731 12.8 2 13.1582 2 13.6C2 14.0418 2.3731 14.4 2.83333 14.4H4.5V19.2C4.5 19.6418 4.8731 20 5.33333 20C5.79357 20 6.16667 19.6418 6.16667 19.2V14.4Z" fill="currentColor"/>
<path d="M12.8333 12C12.8333 11.5582 12.4602 11.2 12 11.2C11.5398 11.2 11.1667 11.5582 11.1667 12V19.2C11.1667 19.6418 11.5398 20 12 20C12.4602 20 12.8333 19.6418 12.8333 19.2V12Z" fill="currentColor"/>
<path d="M12 4C12.4602 4 12.8333 4.35817 12.8333 4.8V8H14.5C14.9602 8 15.3333 8.35817 15.3333 8.8C15.3333 9.24183 14.9602 9.6 14.5 9.6H9.5C9.03976 9.6 8.66667 9.24183 8.66667 8.8C8.66667 8.35817 9.03976 8 9.5 8H11.1667V4.8C11.1667 4.35817 11.5398 4 12 4Z" fill="currentColor"/>
<path d="M21.1667 14.4C21.6269 14.4 22 14.7582 22 15.2C22 15.6418 21.6269 16 21.1667 16H19.5V19.2C19.5 19.6418 19.1269 20 18.6667 20C18.2064 20 17.8333 19.6418 17.8333 19.2V16H16.1667C15.7064 16 15.3333 15.6418 15.3333 15.2C15.3333 14.7582 15.7064 14.4 16.1667 14.4H21.1667Z" fill="currentColor"/>
<path d="M18.6667 4C19.1269 4 19.5 4.35817 19.5 4.8V12C19.5 12.4418 19.1269 12.8 18.6667 12.8C18.2064 12.8 17.8333 12.4418 17.8333 12V4.8C17.8333 4.35817 18.2064 4 18.6667 4Z" fill="currentColor"/>
</svg>
