<svg width="21" height="20" viewBox="0 0 21 20" fill="none" xmlns="http://www.w3.org/2000/svg">
<path d="M4.9444 3.33334C5.32793 3.33334 5.63885 3.63182 5.63885 4.00001V8.66668C5.63885 9.03487 5.32793 9.33334 4.9444 9.33334C4.56087 9.33334 4.24996 9.03487 4.24996 8.66668V4.00001C4.24996 3.63182 4.56087 3.33334 4.9444 3.33334Z" fill="black"/>
<path d="M5.63885 12H7.02774C7.41127 12 7.72218 11.7015 7.72218 11.3333C7.72218 10.9652 7.41127 10.6667 7.02774 10.6667H2.86107C2.47754 10.6667 2.16663 10.9652 2.16663 11.3333C2.16663 11.7015 2.47754 12 2.86107 12H4.24996V16C4.24996 16.3682 4.56087 16.6667 4.9444 16.6667C5.32793 16.6667 5.63885 16.3682 5.63885 16V12Z" fill="black"/>
<path d="M11.1944 10C11.1944 9.63182 10.8835 9.33334 10.5 9.33334C10.1164 9.33334 9.80552 9.63182 9.80552 10V16C9.80552 16.3682 10.1164 16.6667 10.5 16.6667C10.8835 16.6667 11.1944 16.3682 11.1944 16V10Z" fill="black"/>
<path d="M10.5 3.33334C10.8835 3.33334 11.1944 3.63182 11.1944 4.00001V6.66668H12.5833C12.9668 6.66668 13.2777 6.96515 13.2777 7.33334C13.2777 7.70153 12.9668 8.00001 12.5833 8.00001H8.41663C8.03309 8.00001 7.72218 7.70153 7.72218 7.33334C7.72218 6.96515 8.03309 6.66668 8.41663 6.66668H9.80552V4.00001C9.80552 3.63182 10.1164 3.33334 10.5 3.33334Z" fill="black"/>
<path d="M18.1388 12C18.5224 12 18.8333 12.2985 18.8333 12.6667C18.8333 13.0349 18.5224 13.3333 18.1388 13.3333H16.75V16C16.75 16.3682 16.439 16.6667 16.0555 16.6667C15.672 16.6667 15.3611 16.3682 15.3611 16V13.3333H13.9722C13.5887 13.3333 13.2777 13.0349 13.2777 12.6667C13.2777 12.2985 13.5887 12 13.9722 12H18.1388Z" fill="black"/>
<path d="M16.0555 3.33334C16.439 3.33334 16.75 3.63182 16.75 4.00001V10C16.75 10.3682 16.439 10.6667 16.0555 10.6667C15.672 10.6667 15.3611 10.3682 15.3611 10V4.00001C15.3611 3.63182 15.672 3.33334 16.0555 3.33334Z" fill="black"/>
</svg>
