<svg viewBox="0 0 24 24" fill="none" xmlns="http://www.w3.org/2000/svg">
<path fill-rule="evenodd" clip-rule="evenodd" d="M8.66667 3C8.51094 3 8.3652 3.04194 8.2405 3.11494L2.41988 6.38053C2.16024 6.5262 2 6.7973 2 7.09091V20.1818C2 20.4735 2.15813 20.7431 2.41506 20.8895C2.67199 21.0359 2.98886 21.0369 3.24678 20.8922L8.69289 17.8367L14.9456 20.9062C15.0538 20.9622 15.176 20.9954 15.3058 20.9996C15.3149 20.9999 15.3241 21 15.3333 21C15.4891 21 15.6348 20.9581 15.7595 20.8851L21.5801 17.6195C21.8398 17.4738 22 17.2027 22 16.9091V3.81818C22 3.52652 21.8419 3.25692 21.5849 3.11053C21.328 2.96414 21.0111 2.9631 20.7532 3.1078L15.3071 6.16328L9.05435 3.09374C8.93854 3.03388 8.80663 3 8.66667 3ZM16.1667 18.7719L20.3333 16.4343V5.22806L16.1667 7.56572V18.7719ZM14.5 7.59657L9.5 5.14203V16.4034L14.5 18.858V7.59657ZM3.66667 7.56572L7.83333 5.22806V16.4343L3.66667 18.7719V7.56572Z" fill="currentColor"/>
</svg>
