<svg viewBox="0 0 16 17" fill="none" xmlns="http://www.w3.org/2000/svg">
<path fill-rule="evenodd" clip-rule="evenodd" d="M5.7777 2.5C5.67388 2.5 5.57672 2.52796 5.49359 2.57662L1.61317 4.75369C1.44008 4.8508 1.33325 5.03153 1.33325 5.22727V13.9545C1.33325 14.149 1.43867 14.3287 1.60996 14.4263C1.78125 14.5239 1.99249 14.5246 2.16444 14.4281L5.79518 12.3911L9.96367 14.4375C10.0358 14.4748 10.1173 14.4969 10.2038 14.4997C10.2099 14.4999 10.216 14.5 10.2221 14.5C10.326 14.5 10.4231 14.472 10.5063 14.4234L14.3867 12.2463C14.5598 12.1492 14.6666 11.9685 14.6666 11.7727V3.04545C14.6666 2.85102 14.5612 2.67128 14.3899 2.57369C14.2186 2.47609 14.0073 2.4754 13.8354 2.57187L10.2047 4.60885L6.03615 2.56249C5.95895 2.52259 5.87101 2.5 5.7777 2.5ZM10.7777 13.0146L13.5555 11.4562V3.98537L10.7777 5.54381V13.0146ZM9.66659 5.56438L6.33325 3.92802V11.4356L9.66659 13.072V5.56438ZM2.44436 5.54381L5.22214 3.98537V11.4562L2.44436 13.0146V5.54381Z" fill="black"/>
</svg>
