<svg viewBox="0 0 12 11" fill="none" xmlns="http://www.w3.org/2000/svg">
<path d="M5.73673 0.655933C5.85049 0.447711 6.14951 0.447711 6.26327 0.655933L7.77133 3.41628C7.8153 3.49676 7.89366 3.55271 7.98405 3.56816L11.1367 4.10712C11.3762 4.14807 11.4702 4.442 11.2989 4.61435L9.08437 6.84161C9.01785 6.90852 8.98668 7.00282 9.00022 7.09619L9.44632 10.1717C9.4807 10.4087 9.23714 10.5885 9.02077 10.4858L6.12865 9.11286C6.04724 9.07421 5.95276 9.07421 5.87135 9.11286L2.97923 10.4858C2.76286 10.5885 2.5193 10.4087 2.55368 10.1717L2.99978 7.09619C3.01332 7.00282 2.98215 6.90852 2.91563 6.84161L0.70115 4.61435C0.529786 4.442 0.623768 4.14807 0.863338 4.10712L4.01595 3.56816C4.10634 3.55271 4.1847 3.49676 4.22867 3.41628L5.73673 0.655933Z" fill="black"/>
</svg>
